<?xml version="1.0" encoding="utf-8"?>
<!-- Generator: Adobe Illustrator 23.1.1, SVG Export Plug-In . SVG Version: 6.00 Build 0)  -->
<svg version="1.1" xmlns="http://www.w3.org/2000/svg" xmlns:xlink="http://www.w3.org/1999/xlink" x="0px" y="0px"
	 viewBox="0 0 400 400" style="enable-background:new 0 0 400 400;" xml:space="preserve">
<style type="text/css">
	.st0{fill:#FFFFFF;stroke:#000000;stroke-miterlimit:10;}
	.st1{fill:#EE726D;}
	.st2{fill:#FFFFFF;}
</style>
<g id="Lager_3">
	<path class="st0" d="M90.73,216.03c14.36-0.12,214.55-0.28,217.93-0.28s12.39,1.69,15.49,7.88c3.1,6.19,26.47,51.53,27.31,54.34
		c0.84,2.82,7.32,12.39-14.36,13.51s-277.34,0.28-279.03,0c-1.69-0.28-12.11-1.69-11.83-9.01s27.59-59.13,28.72-60.54
		C76.09,220.53,82,216.1,90.73,216.03z"/>
	<polygon class="st0" points="105.94,219.41 80.88,285.85 314.86,285.85 290.64,219.41 	"/>
	<polygon class="st0" points="78.63,241.37 83.98,241.37 77.22,256.57 72.15,256.57 	"/>
	<path class="st0" d="M71.02,261.64c-1.13,0.28-2.82,2.25-1.97,2.53c0.84,0.28,3.94-0.56,4.79,0c0.84,0.56,2.25-2.53,1.13-2.53
		C73.84,261.64,71.02,261.64,71.02,261.64z"/>
	<path class="st0" d="M352.37,286.98c0.26,7.34-7.39,11.54-9.08,12.11s-272.83,0.84-285.5,0s-11.83-7.88-11.55-11.26
		c0,0-0.81-1.04,3.52,0.88s5.4,2.87,34.21,2.99c28.82,0.12,256.39,0.53,257.63,0.36C343.72,291.77,352.37,286.98,352.37,286.98z"/>
	<path class="st0" d="M318.8,243.06c-3.94-0.15-7.32,0.84-6.76,3.38c0.56,2.53,1.91,7.05,3.35,7.46c1.44,0.42,7.91,1.21,11.29,0
		C328.07,253.4,326.12,243.34,318.8,243.06z"/>
	<polygon class="st0" points="276.56,243.04 299.25,243.04 314.86,285.85 288.11,285.85 	"/>
	<path class="st0" d="M246.72,285.85l-5.63-36.88c6.48-0.84,7.6-5.93,7.6-5.93h22.81l10.98,42.81"/>
	<polygon class="st0" points="242.21,285.85 238.83,259.95 192.1,259.95 192.1,285.85 	"/>
	<polygon class="st0" points="185.9,259.95 185.9,285.85 164.22,285.85 167.88,259.95 	"/>
	<polygon class="st0" points="116.92,259.95 164.22,259.95 160.56,285.85 106.78,285.85 	"/>
	<polygon class="st0" points="91.19,258.5 112.13,258.5 102.84,285.85 80.88,285.85 	"/>
	<polyline class="st0" points="92.41,255.27 112.13,255.27 118.33,243.04 97.66,241.37 99.21,237.26 120.02,237.26 125.65,219.41 
		105.94,219.41 	"/>
	<polyline class="st0" points="129.31,219.41 123.68,237.34 157.75,237.34 159.43,219.41 	"/>
	<polyline class="st0" points="165.63,219.41 164.22,241.37 121.42,241.37 118.05,255.27 165.63,255.27 167.04,239.96 185.9,239.4 
		187.87,219.41 	"/>
	<rect x="170.13" y="243.04" class="st0" width="17.74" height="13.53"/>
	<path class="st0" d="M194.63,219.41v19.71h30.13c0,0,5.91-6.19,8.73-6.48c2.82-0.28,0-13.23,0-13.23"/>
	<path class="st0" d="M237.43,219.41c0,0-1.41,13.23,0,13.23c1.41,0,10.42,1.97,11.83,6.48h48.57l-7.18-19.71H237.43z"/>
	<path class="st0" d="M193.22,256.57v-13.53h31.82c0,0,7.48,7.6,11.76,6.76c0.06,1.42,0,6.76,0,6.76H193.22z"/>
</g>
<g id="Lager_2">
	<path class="st1" d="M200,225.04c-2.56-3.38-72.94-69.83-43.1-112.06s74.27-18.22,86.72-5.07c6.76,12.39,23.09,32.66-7.32,74.89
		S200,225.04,200,225.04z"/>
	<circle class="st2" cx="200" cy="143.31" r="24.84"/>
	<path class="st1" d="M198.29,241.65c-1.89,0.1-12.38,6.32-3.66,10.42c7.19,3.38,15.2-2.53,14.64-5.21
		C208.71,244.18,208.71,241.09,198.29,241.65z"/>
</g>
</svg>
