<?xml version="1.0" encoding="utf-8"?>
<!-- Generator: Adobe Illustrator 23.1.1, SVG Export Plug-In . SVG Version: 6.00 Build 0)  -->
<svg version="1.1" xmlns="http://www.w3.org/2000/svg" xmlns:xlink="http://www.w3.org/1999/xlink" x="0px" y="0px"
	 viewBox="0 0 400 400" style="enable-background:new 0 0 400 400;" xml:space="preserve">
<style type="text/css">
	.st0{fill:#FFB737;}
	.st1{fill:none;stroke:#000000;stroke-miterlimit:10;}
	.st2{fill:none;stroke:#000000;stroke-width:0.5;stroke-miterlimit:10;}
	.st3{fill:none;stroke:#000000;stroke-width:2;stroke-miterlimit:10;}
</style>
<g id="solen">
	<circle class="st0" cx="198.81" cy="176.38" r="101.87"/>
</g>
<g id="Lager_3">
	<path class="st1" d="M21.94,172.86c4.69,0,19.9,0.19,32.47,16.52s32.29,27.03,34.16,27.22"/>
	<g>
		<path d="M28.91,175.92c0.5,0.12,0.89,0.49,1.17,0.94c0.13,0.22,0.33,0.49,0.26,0.8c-0.06,0.3-0.29,0.63-0.66,0.66l-0.08-0.06
			c-0.1-0.34-0.2-0.46-0.26-0.61c-0.07-0.13,0.02-0.32-0.01-0.51c-0.02-0.19-0.07-0.39-0.15-0.58c-0.07-0.2-0.16-0.4-0.32-0.55
			L28.91,175.92z"/>
	</g>
	<g>
		<path d="M33.53,181.29c0.04-1.15,0.03-2.3-0.02-3.43c-0.03-0.57-0.16-1.12-0.14-1.67c0.02-0.56,0.05-1.1,0.16-1.72l0.1-0.03
			c0.42,0.48,0.62,1.08,0.74,1.67c0.12,0.59-0.01,1.19-0.06,1.77c-0.12,1.17-0.35,2.31-0.68,3.42L33.53,181.29z"/>
	</g>
	<g>
		<path d="M40.66,184.11c0.06-1.12,0.04-2.25-0.02-3.35c-0.03-0.55-0.18-1.09-0.15-1.63c0.02-0.55,0.04-1.08,0.17-1.69l0.1-0.03
			c0.4,0.48,0.61,1.06,0.73,1.63c0.12,0.58,0.01,1.16-0.04,1.73c-0.11,1.14-0.34,2.27-0.68,3.35L40.66,184.11z"/>
	</g>
	<g>
		<path d="M44.05,190.1c0.33-0.77,0.46-1.61,0.58-2.43c0.12-0.83,0.19-1.66,0.21-2.49c0.03-0.83-0.07-1.66-0.03-2.48
			c0.04-0.83,0.06-1.65,0.19-2.53l0.1-0.02c0.42,0.79,0.62,1.65,0.72,2.51c0.11,0.87-0.05,1.73-0.17,2.59
			c-0.12,0.85-0.29,1.7-0.52,2.53c-0.25,0.82-0.52,1.64-0.98,2.38L44.05,190.1z"/>
	</g>
	<g>
		<path d="M21.97,224.06c0.75,0.63,1.38,1.37,2.03,2.09l1.87,2.22c0.62,0.74,1.3,1.42,1.84,2.21c0.57,0.76,1.03,1.6,1.67,2.3
			l-0.04,0.09c-0.53-0.11-0.94-0.44-1.33-0.74c-0.39-0.32-0.73-0.66-1.07-1.02c-0.67-0.71-1.16-1.56-1.7-2.36l-1.62-2.39
			c-0.54-0.8-1.06-1.61-1.7-2.32L21.97,224.06z"/>
	</g>
	<g>
		<path d="M21.05,213c1.01,1.7,2.1,3.36,3.18,5.02l3.23,4.98c1.09,1.65,2.25,3.26,3.28,4.94l1.54,2.53
			c0.25,0.42,0.51,0.85,0.78,1.25c0.26,0.41,0.52,0.86,0.87,1.15l-0.03,0.1c-0.95-0.51-1.52-1.35-2.19-2.09
			c-0.64-0.77-1.23-1.57-1.81-2.38c-1.15-1.62-2.12-3.36-3.13-5.07l-2.98-5.15c-0.96-1.74-1.94-3.46-2.84-5.23L21.05,213z"/>
	</g>
	<g>
		<path d="M19.64,196.61c0.84-0.6,1.49-1.46,2.13-2.29c0.63-0.84,1.23-1.72,1.83-2.6c0.6-0.88,1.18-1.77,1.8-2.64
			c0.32-0.44,0.62-0.87,1-1.3c0.09-0.11,0.19-0.21,0.3-0.32c0.11-0.1,0.2-0.21,0.41-0.32c0.17-0.12,0.4-0.15,0.62-0.16
			c0.18,0.03,0.39,0.05,0.53,0.12c0.61,0.24,1.04,0.57,1.49,0.88c0.44,0.31,0.86,0.61,1.29,0.87c0.84,0.54,1.78,0.86,2.48,0.61
			c0.65-0.22,1.12-1.13,1.47-2.06l0.55-1.5c0.11-0.27,0.22-0.54,0.4-0.84c0.1-0.16,0.21-0.32,0.41-0.49
			c0.19-0.17,0.53-0.35,0.9-0.32c0.34,0.02,0.61,0.13,0.79,0.29c0.19,0.15,0.4,0.33,0.47,0.48c0.23,0.32,0.35,0.6,0.48,0.88
			c0.22,0.55,0.38,1.09,0.53,1.61c0.29,1.05,0.55,2.07,0.85,3.05c0.28,0.97,0.63,1.94,1.1,2.61c0.1,0.19,0.23,0.29,0.34,0.42
			c0.06,0.07,0.12,0.07,0.17,0.12c0.05,0.04,0.1,0.09,0.17,0.09c0.24,0.12,0.49,0.1,0.84-0.02c0.71-0.22,1.52-0.92,2.29-1.58
			c0.79-0.67,1.57-1.45,2.56-2.07c0.24-0.16,0.53-0.3,0.8-0.43c0.31-0.12,0.61-0.21,0.87-0.25c0.55-0.1,1.09-0.18,1.63-0.23
			c1.09-0.07,2.17-0.09,3.25,0.05v0.2c-1.05,0.17-2.09,0.36-3.09,0.65c-0.5,0.14-1,0.29-1.47,0.47c-0.26,0.09-0.45,0.19-0.63,0.28
			c-0.18,0.13-0.37,0.24-0.55,0.4c-0.73,0.62-1.42,1.41-2.16,2.2c-0.77,0.77-1.52,1.62-2.8,2.18c-0.62,0.26-1.51,0.39-2.26,0.08
			c-0.2-0.05-0.37-0.15-0.54-0.26c-0.16-0.11-0.35-0.21-0.47-0.34c-0.25-0.25-0.52-0.52-0.68-0.79c-0.71-1.1-1-2.2-1.29-3.27
			c-0.26-1.07-0.44-2.13-0.66-3.14c-0.11-0.51-0.23-0.99-0.38-1.44c-0.08-0.2-0.16-0.42-0.24-0.53c-0.04-0.1-0.06-0.07-0.07-0.1
			c0-0.05-0.02-0.01,0.07-0.02c0.1,0,0.19-0.05,0.17-0.05c0-0.01-0.06,0.05-0.1,0.11c-0.1,0.15-0.21,0.36-0.31,0.58l-0.62,1.47
			c-0.23,0.51-0.47,1.03-0.84,1.53c-0.35,0.49-0.87,1-1.58,1.21c-0.68,0.18-1.36,0.12-1.95-0.08c-0.59-0.19-1.09-0.5-1.55-0.8
			c-0.92-0.6-1.74-1.41-2.51-1.78c-0.1-0.06-0.16-0.05-0.24-0.08c-0.04,0.02-0.08-0.01-0.13,0.04c-0.04,0.01-0.14,0.08-0.22,0.16
			c-0.09,0.07-0.17,0.15-0.26,0.24c-0.35,0.35-0.69,0.76-1.02,1.17c-0.66,0.82-1.3,1.67-1.95,2.51c-0.65,0.84-1.31,1.68-2,2.5
			c-0.7,0.8-1.41,1.63-2.34,2.21L19.64,196.61z"/>
	</g>
	<g>
		<path d="M21.05,195.55c-0.26,1.77,0.11,3.58,0.55,5.3c0.47,1.73,1.16,3.39,1.99,4.97c0.82,1.6,1.87,3.01,2.95,4.48
			c1.05,1.48,2,3.03,2.93,4.58c1.86,3.1,3.64,6.24,5.38,9.38c0.87,1.57,1.78,3.12,2.74,4.63c0.48,0.75,0.99,1.49,1.54,2.18
			c0.55,0.7,1.16,1.36,1.93,1.81l-0.04,0.09c-1.71-0.76-2.86-2.3-3.98-3.71c-1.11-1.44-2.06-2.99-3.03-4.52
			c-1.89-3.09-3.53-6.3-5.28-9.44c-0.88-1.57-1.78-3.12-2.77-4.61c-1.02-1.45-2.08-2.99-2.85-4.63c-0.8-1.64-1.41-3.36-1.82-5.13
			c-0.37-1.77-0.67-3.6-0.33-5.4L21.05,195.55z"/>
	</g>
	<path class="st1" d="M28.32,180.77c-0.19,0.91-1.64,5.6-0.87,6.72"/>
	<g>
		<path d="M22.43,193.86c1.31,3.67,2.84,7.27,4.47,10.81c1.64,3.54,3.39,7.04,5.53,10.26c1.09,1.59,2.27,3.12,3.76,4.29
			c1.54,1.24,2.97,2.6,4.33,4.02c1.35,1.43,2.66,2.89,3.9,4.4l1.85,2.28c0.61,0.75,1.19,1.59,1.86,2.21l-0.03,0.1
			c-0.47-0.26-0.78-0.63-1.14-0.97l-1.03-1.05l-2.02-2.12c-1.35-1.4-2.69-2.82-4.09-4.17c-1.38-1.36-2.8-2.68-4.27-3.94
			c-1.57-1.3-2.74-2.96-3.8-4.61c-2.1-3.35-3.76-6.9-5.31-10.5c-1.51-3.61-2.92-7.26-4.11-10.99L22.43,193.86z"/>
	</g>
	<g>
		<path d="M24.32,191.28c1.88,3.97,3.88,7.89,6.07,11.7c1.09,1.9,2.23,3.78,3.49,5.56c0.63,0.89,1.29,1.76,2.02,2.55
			c0.36,0.4,0.74,0.75,1.16,1.1c0.43,0.36,0.84,0.74,1.24,1.12c3.19,3.08,6.17,6.3,9.27,9.38c1.54,1.55,3.14,3.04,4.84,4.39
			c0.85,0.68,1.73,1.31,2.67,1.85c0.93,0.55,1.93,1,3,1.23l-0.01,0.1c-2.24-0.19-4.26-1.38-6.08-2.61c-1.83-1.27-3.5-2.74-5.12-4.24
			c-3.24-3.02-6.05-6.43-9.13-9.53c-0.39-0.38-0.78-0.76-1.18-1.11c-0.42-0.37-0.84-0.77-1.2-1.2c-0.74-0.85-1.39-1.75-2.01-2.66
			c-1.24-1.84-2.34-3.75-3.39-5.69c-2.08-3.89-3.97-7.86-5.73-11.89L24.32,191.28z"/>
	</g>
	<g>
		<path d="M29.4,188.97c1.12,1.97,2.04,4.01,3.1,6c1.04,1.99,2.12,3.96,3.33,5.84c0.62,0.93,1.24,1.86,1.96,2.7
			c0.7,0.82,1.57,1.6,2.27,2.5c1.42,1.78,2.66,3.66,3.98,5.48c2.61,3.63,5.44,7.15,8.98,9.77c1.74,1.3,3.8,2.3,5.71,3.49
			c1.92,1.18,3.86,2.34,5.65,3.72l-0.06,0.08c-1.93-1.14-3.94-2.15-5.93-3.19c-1.98-1.06-4.02-1.98-5.95-3.28
			c-3.8-2.65-6.53-6.42-9.06-10.13c-1.28-1.86-2.48-3.76-3.83-5.53c-0.66-0.89-1.46-1.63-2.21-2.54c-0.73-0.88-1.34-1.84-1.94-2.8
			c-2.35-3.87-4.08-8.05-6.09-12.05L29.4,188.97z"/>
	</g>
	<g>
		<path d="M36.63,187.49c0.63,2.24,1.61,4.4,2.57,6.53c0.99,2.12,2.06,4.21,3.25,6.22c1.19,2,2.5,3.96,4.1,5.62
			c1.67,1.62,3.31,3.37,4.84,5.14c3.11,3.51,6.19,7.07,9.75,10c0.44,0.38,0.91,0.7,1.37,1.05c0.47,0.34,0.96,0.62,1.44,0.93
			c0.51,0.25,1.01,0.53,1.53,0.74c0.54,0.18,1.05,0.4,1.62,0.55c2.25,0.65,4.51,1.32,6.75,2.04l-0.02,0.1
			c-2.31-0.44-4.6-0.95-6.89-1.46c-2.37-0.46-4.53-1.73-6.41-3.17c-3.78-2.95-6.71-6.69-9.74-10.26c-1.51-1.81-3.04-3.52-4.7-5.21
			c-1.62-1.76-2.9-3.77-4.06-5.82c-1.15-2.06-2.17-4.18-3.09-6.34c-0.9-2.17-1.82-4.34-2.4-6.63L36.63,187.49z"/>
	</g>
	<g>
		<path d="M44.74,195.16c2.34,2.76,4.69,5.5,7.13,8.16c2.42,2.68,4.9,5.31,7.53,7.75c1.32,1.22,2.69,2.39,4.15,3.37
			c0.7,0.5,1.53,0.96,2.27,1.48c0.75,0.52,1.49,1.05,2.21,1.6c1.43,1.12,2.83,2.28,4.19,3.46c0.68,0.59,1.36,1.18,2.07,1.73
			c0.7,0.55,1.41,1.13,2.27,1.33l0,0.1c-0.95-0.06-1.76-0.6-2.53-1.06c-0.77-0.5-1.5-1.03-2.24-1.56c-1.46-1.07-2.88-2.18-4.35-3.21
			c-1.45-1.08-2.93-2.01-4.44-3.07c-1.5-1.09-2.85-2.32-4.14-3.6c-5.18-5.1-9.72-10.75-14.19-16.43L44.74,195.16z"/>
	</g>
	<g>
		<path d="M49.85,193c1.18,1.42,2.24,2.91,3.39,4.34c1.13,1.44,2.3,2.85,3.5,4.24c2.4,2.75,4.95,5.4,7.8,7.65
			c1.43,1.11,2.94,2.13,4.53,2.96c1.62,0.84,3.26,1.68,4.86,2.57c1.59,0.91,3.2,1.81,4.77,2.76l2.36,1.42
			c0.78,0.47,1.55,0.99,2.37,1.36l-0.02,0.1c-1.78-0.58-3.38-1.49-5.04-2.28l-4.91-2.49c-1.63-0.85-3.25-1.68-4.86-2.58
			c-1.63-0.92-3.14-2.02-4.57-3.21c-2.85-2.38-5.34-5.11-7.68-7.95c-1.16-1.43-2.27-2.89-3.35-4.38c-1.09-1.48-2.11-3.01-3.22-4.46
			L49.85,193z"/>
	</g>
	<g>
		<path d="M23.17,232.87c1.11,0.2,2.27,0.18,3.41,0.2c1.14,0,2.29-0.02,3.43-0.06c2.29-0.07,4.57-0.19,6.86-0.34
			c4.56-0.3,9.13-0.67,13.66-1.26c4.53-0.57,8.96-1.72,13.39-2.84c4.43-1.15,8.84-2.38,13.22-3.67c2.19-0.65,4.38-1.31,6.56-2.01
			c1.08-0.35,2.18-0.7,3.21-1.1c1.02-0.43,2.05-0.96,3.07-1.46c4.09-2.03,8.15-4.15,12.23-6.23c4.1-2.04,8.19-4.1,12.34-6.05
			c2.08-0.97,4.16-1.93,6.26-2.84c1.06-0.45,2.12-0.88,3.19-1.28c1.08-0.38,2.15-0.83,3.33-0.91l0,0.1
			c-1.11,0.13-2.17,0.63-3.22,1.06c-1.05,0.45-2.08,0.94-3.11,1.44c-2.06,0.98-4.11,2.01-6.14,3.05c-4.07,2.08-8.14,4.18-12.19,6.32
			c-4.08,2.08-8.14,4.19-12.25,6.23c-1.04,0.5-2.06,1-3.15,1.45c-1.11,0.42-2.2,0.74-3.3,1.08c-2.2,0.67-4.4,1.3-6.6,1.92
			c-4.41,1.24-8.84,2.42-13.29,3.53c-4.45,1.07-8.92,2.18-13.49,2.71c-4.56,0.52-9.13,0.83-13.71,1.06
			c-2.29,0.11-4.58,0.2-6.87,0.24c-1.15,0.02-2.29,0.03-3.44,0.01c-1.14-0.03-2.29-0.03-3.43-0.25L23.17,232.87z"/>
	</g>
	<g>
		<path d="M75.23,225.13c1.49-0.73,2.89-1.65,4.3-2.54c1.41-0.89,2.8-1.81,4.19-2.73c2.78-1.85,5.54-3.72,8.28-5.61
			c2.74-1.9,5.47-3.81,8.18-5.76c2.71-1.95,5.38-3.93,7.92-6.09c5.12-4.27,10.22-8.58,15.43-12.75c2.61-2.08,5.24-4.14,7.99-6.05
			c0.68-0.49,1.4-0.93,2.11-1.37c0.74-0.42,1.49-0.8,2.24-1.15l4.5-2.18c6.02-2.87,12.14-5.58,18.44-7.82
			c3.14-1.14,6.34-2.13,9.59-2.95c1.62-0.43,3.26-0.75,4.91-1.07c1.66-0.25,3.32-0.49,4.98-0.65c6.63-0.72,13.29-1.38,19.97-1.61
			c6.67-0.21,13.41-0.03,20.01,1.32c3.29,0.67,6.51,1.82,9.5,3.32c3.01,1.47,5.94,3.08,8.81,4.81c5.71,3.49,11.18,7.41,16.08,12
			c2.45,2.28,4.78,4.73,6.81,7.41c2.06,2.66,3.75,5.62,5.22,8.62c1.47,3.01,2.89,6.08,3.64,9.43c0.16,0.84,0.31,1.7,0.24,2.62
			c-0.03,0.45-0.11,0.93-0.37,1.41c-0.04,0.06-0.07,0.12-0.12,0.18c-0.06,0.07-0.14,0.15-0.2,0.2c-0.14,0.1-0.27,0.17-0.41,0.21
			c-0.27,0.1-0.54,0.12-0.79,0.12c-1.03-0.05-1.84-0.56-2.54-1.1c-0.7-0.56-1.28-1.21-1.81-1.89c-1.05-1.38-1.84-2.85-2.71-4.27
			c-0.86-1.43-1.71-2.86-2.6-4.26c-0.45-0.69-0.9-1.39-1.39-2.01c-0.12-0.14-0.25-0.29-0.37-0.39c-0.07-0.07-0.09-0.06-0.11-0.09
			c0.06,0.03,0.07,0.03,0.18-0.01c0.24-0.07,0.28-0.34,0.27-0.33c0-0.06,0.01,0.05,0.04,0.11c0.03,0.08,0.07,0.16,0.1,0.25
			c0.08,0.17,0.17,0.35,0.27,0.53l1.23,2.17c0.21,0.37,0.41,0.74,0.6,1.13c0.18,0.41,0.38,0.77,0.45,1.36
			c-0.01,0.17,0.03,0.37-0.18,0.65c-0.11,0.14-0.11,0.12-0.18,0.22c-0.1,0.14-0.21,0.32-0.32,0.49c-0.21,0.35-0.44,0.72-0.7,1.09
			c-0.27,0.36-0.59,0.72-1.04,1c-0.44,0.28-1.07,0.38-1.58,0.22c-0.12-0.01-0.3-0.11-0.42-0.17c-0.1-0.07-0.22-0.15-0.31-0.22
			c-0.18-0.15-0.34-0.31-0.5-0.46c-0.3-0.32-0.59-0.64-0.86-0.97c-0.54-0.65-1.05-1.32-1.55-2c-1.99-2.7-3.83-5.49-5.73-8.22
			c-0.48-0.67-0.96-1.37-1.45-1.98c-0.38-0.56-1.04-0.64-1.61-0.34c-0.58,0.3-0.95,0.96-1.07,1.68c-0.05,0.34-0.07,0.8-0.13,1.23
			c-0.07,0.44-0.16,0.89-0.37,1.34c-0.1,0.23-0.26,0.46-0.47,0.65c-0.22,0.19-0.52,0.33-0.81,0.36c-0.59,0.06-1.05-0.13-1.46-0.33
			c-0.82-0.4-1.5-1-2.1-1.61c-0.6-0.62-1.14-1.28-1.65-1.94l-0.77-0.99c-0.13-0.16-0.25-0.32-0.38-0.47
			c-0.06-0.07-0.13-0.15-0.19-0.21c-0.05-0.06-0.15-0.12-0.11-0.11c0.2,0.08,0.43,0,0.53-0.23c0.03-0.21,0.02-0.06,0.02-0.11
			c-0.01-0.02,0.02,0.06,0.02,0.09l0.09,0.27l0.21,0.57l0.46,1.16c0.31,0.78,0.61,1.56,0.89,2.35c0.56,1.58,1.07,3.2,1.33,4.89
			c0.13,0.85,0.19,1.72,0.04,2.62c-0.08,0.45-0.26,0.9-0.51,1.29c-0.09,0.21-0.32,0.38-0.48,0.57c-0.22,0.13-0.45,0.32-0.73,0.33
			c-0.56,0.12-1.05-0.1-1.44-0.33c-0.41-0.23-0.73-0.53-1.05-0.83c-0.62-0.62-1.14-1.29-1.62-2.01l-0.03-0.04l-0.02-0.06
			c-0.3-1.12-0.64-2.25-1.01-3.35c-0.38-1.09-0.77-2.23-1.36-3.14c-0.07-0.11-0.16-0.2-0.23-0.26c-0.03-0.02-0.06-0.04-0.06-0.04
			c0.03,0.03,0.21-0.07,0.2-0.1c-0.02,0.07,0.02,0.43,0.08,0.68c0.12,0.55,0.29,1.11,0.47,1.67l1.09,3.35
			c0.36,1.12,0.72,2.25,1.02,3.39c0.29,1.15,0.6,2.3,0.56,3.56c-0.1,1.2-0.34,2.37-0.68,3.51c-0.37,1.13-0.78,2.3-1.71,3.2
			c-0.45,0.45-1.22,0.69-1.86,0.46c-0.64-0.2-1.12-0.63-1.53-1.07c-0.83-0.9-1.4-1.95-1.99-2.97c-1.14-2.07-2.07-4.24-3.05-6.37
			c-0.98-2.13-2.02-4.24-3.42-6.12c-1.38-1.88-3.28-3.39-5.48-4.2l0.03-0.09c2.24,0.77,4.19,2.28,5.62,4.16
			c1.44,1.88,2.53,3.99,3.54,6.11c1.01,2.12,1.98,4.27,3.14,6.3c0.6,1,1.19,2.02,1.97,2.85c0.39,0.41,0.83,0.78,1.33,0.93
			c0.49,0.17,1,0,1.39-0.37c0.78-0.75,1.2-1.89,1.54-2.98c0.32-1.11,0.54-2.26,0.63-3.4c0.03-1.1-0.28-2.26-0.57-3.37
			c-0.31-1.12-0.67-2.24-1.04-3.35l-1.12-3.35c-0.18-0.56-0.36-1.13-0.49-1.72c-0.05-0.32-0.17-0.55-0.06-1.06
			c0.01-0.06,0.12-0.2,0.2-0.25c0.1-0.05,0.28-0.07,0.33-0.04c0.15,0.03,0.24,0.1,0.33,0.16c0.15,0.13,0.27,0.26,0.36,0.39
			c0.7,1.07,1.07,2.18,1.48,3.3c0.39,1.12,0.73,2.25,1.05,3.39l-0.04-0.1c0.44,0.66,0.95,1.32,1.52,1.87
			c0.29,0.27,0.59,0.54,0.91,0.71c0.32,0.18,0.66,0.31,0.93,0.23c0.15,0.01,0.26-0.12,0.39-0.18c0.1-0.14,0.24-0.21,0.32-0.39
			c0.19-0.32,0.33-0.65,0.39-1.02c0.12-0.75,0.07-1.56-0.07-2.36c-0.26-1.6-0.77-3.18-1.33-4.74c-0.28-0.78-0.58-1.55-0.89-2.32
			l-0.47-1.16l-0.23-0.6l-0.11-0.32c-0.02-0.08-0.03-0.1-0.05-0.22c0.01-0.1-0.04,0,0.02-0.27c0.11-0.3,0.38-0.38,0.64-0.28
			c0.21,0.13,0.27,0.2,0.37,0.29c0.09,0.09,0.16,0.17,0.24,0.25c0.15,0.17,0.28,0.33,0.41,0.5l0.77,0.98
			c0.51,0.65,1.04,1.28,1.6,1.85c0.57,0.57,1.17,1.08,1.86,1.41c0.33,0.16,0.69,0.27,0.94,0.23c0.24-0.03,0.41-0.18,0.56-0.5
			c0.14-0.3,0.22-0.68,0.28-1.07l0.12-1.26c0.15-0.91,0.63-1.88,1.55-2.38c0.45-0.24,0.99-0.37,1.53-0.27
			c0.26,0.06,0.53,0.14,0.76,0.3c0.11,0.06,0.24,0.18,0.33,0.27c0.08,0.09,0.16,0.18,0.23,0.26c0.56,0.68,1.02,1.36,1.51,2.05
			c1.91,2.75,3.75,5.53,5.72,8.2c0.49,0.67,0.99,1.32,1.52,1.95c0.26,0.32,0.53,0.62,0.8,0.91c0.26,0.27,0.6,0.58,0.77,0.59
			c0.57,0.18,1.11-0.22,1.57-0.85c0.23-0.31,0.43-0.65,0.65-1.01c0.11-0.18,0.22-0.36,0.37-0.56c0.04-0.08,0.2-0.24,0.22-0.27
			c-0.07,0.12-0.04,0.09-0.05,0.05c-0.02-0.24-0.19-0.65-0.36-0.99c-0.17-0.36-0.37-0.72-0.57-1.08l-1.24-2.18
			c-0.1-0.19-0.2-0.38-0.3-0.58c-0.05-0.1-0.09-0.21-0.14-0.33c-0.04-0.13-0.09-0.23-0.1-0.49c-0.01-0.08,0.07-0.48,0.41-0.58
			c0.21-0.05,0.33-0.01,0.49,0.03c0.16,0.08,0.33,0.18,0.4,0.26c0.2,0.17,0.34,0.35,0.49,0.52c0.55,0.69,1,1.39,1.46,2.1
			c0.9,1.42,1.76,2.85,2.61,4.28c0.87,1.42,1.67,2.9,2.65,4.18c0.5,0.63,1.04,1.23,1.64,1.72c0.6,0.47,1.3,0.87,1.96,0.89
			c0.32,0.01,0.62-0.09,0.66-0.22c0.14-0.25,0.23-0.61,0.25-0.99c0.06-0.75-0.06-1.56-0.21-2.35c-0.69-3.18-2.08-6.24-3.52-9.21
			c-1.46-3-3.08-5.87-5.09-8.49c-1.98-2.64-4.27-5.07-6.68-7.33c-4.83-4.55-10.25-8.47-15.9-11.95c-2.84-1.72-5.75-3.33-8.74-4.8
			c-2.97-1.49-6.07-2.62-9.33-3.29c-6.49-1.36-13.19-1.56-19.84-1.37c-6.66,0.2-13.3,0.84-19.93,1.54c-1.66,0.16-3.3,0.39-4.94,0.63
			c-1.63,0.31-3.26,0.62-4.87,1.04c-3.23,0.8-6.41,1.78-9.55,2.9c-6.28,2.21-12.4,4.88-18.43,7.72l-4.51,2.16
			c-0.76,0.35-1.5,0.72-2.22,1.12c-0.7,0.44-1.41,0.87-2.09,1.35c-2.74,1.88-5.37,3.94-7.99,6c-5.23,4.14-10.34,8.43-15.48,12.68
			c-2.55,2.15-5.25,4.14-7.96,6.07c-2.72,1.94-5.46,3.84-8.21,5.73c-2.75,1.88-5.52,3.75-8.31,5.58c-1.39,0.92-2.79,1.83-4.2,2.72
			c-1.42,0.88-2.81,1.79-4.33,2.53L75.23,225.13z"/>
	</g>
	<path class="st2" d="M250.52,198.71"/>
	<g>
		<path d="M239.01,184.74c1.25,0.94,2.4,2.03,3.65,2.85c0.31,0.19,0.64,0.38,0.93,0.44c0.06,0.01,0.13,0.03,0.18,0.03
			c0.04-0.01,0.05,0,0.14-0.02c0.15-0.02,0.3-0.06,0.45-0.11c0.59-0.18,1.12-0.63,1.61-1.28l0.1,0.03c0.04,0.83-0.45,1.74-1.31,2.17
			c-0.21,0.1-0.44,0.18-0.67,0.21c-0.1,0.03-0.28,0.01-0.44,0c-0.15-0.02-0.26-0.07-0.39-0.11c-0.44-0.21-0.75-0.47-1.07-0.73
			c-1.24-1.04-2.19-2.27-3.24-3.42L239.01,184.74z"/>
	</g>
	<path class="st2" d="M230.67,193.93"/>
	<path d="M223.21,196.04c0.7,0.42,1.13,1.41,0.7,1.69c-0.42,0.28-1.69,0.42-1.83,0C221.94,197.3,223.21,196.04,223.21,196.04z"/>
	<path d="M200.13,176.82c0.7,0.42,1.13,1.41,0.7,1.69c-0.42,0.28-1.69,0.42-1.83,0C198.87,178.09,200.13,176.82,200.13,176.82z"/>
	<path d="M191.76,178.78c0.7,0.42,1.13,1.41,0.7,1.69c-0.42,0.28-1.69,0.42-1.83,0S191.76,178.78,191.76,178.78z"/>
	<path d="M194.08,189.41c0.7,0.42,1.13,1.41,0.7,1.69c-0.42,0.28-1.69,0.42-1.83,0C192.81,190.67,194.08,189.41,194.08,189.41z"/>
	<path d="M185.1,193.36c0.7,0.42,1.13,1.41,0.7,1.69c-0.42,0.28-1.69,0.42-1.83,0C183.84,194.63,185.1,193.36,185.1,193.36z"/>
	<path d="M179.71,199.37c0.7,0.42,1.13,1.41,0.7,1.69c-0.42,0.28-1.69,0.42-1.83,0C178.44,200.64,179.71,199.37,179.71,199.37z"/>
	<path d="M153.15,181.3c0.7,0.42,1.13,1.41,0.7,1.69c-0.42,0.28-1.69,0.42-1.83,0C151.88,182.57,153.15,181.3,153.15,181.3z"/>
	<path d="M150.54,181.3c0.7,0.42,1.13,1.41,0.7,1.69c-0.42,0.28-1.69,0.42-1.83,0C149.28,182.57,150.54,181.3,150.54,181.3z"/>
	<path d="M144.79,197.22c0.7,0.42,1.13,1.41,0.7,1.69c-0.42,0.28-1.69,0.42-1.83,0S144.79,197.22,144.79,197.22z"/>
	<path d="M145.8,203.83c0.7,0.42,1.13,1.41,0.7,1.69c-0.42,0.28-1.69,0.42-1.83,0C144.53,205.09,145.8,203.83,145.8,203.83z"/>
	<path d="M134,200.35c0.7,0.42,1.13,1.41,0.7,1.69c-0.42,0.28-1.69,0.42-1.83,0C132.73,201.61,134,200.35,134,200.35z"/>
	<path d="M134,207.39c0.7,0.42,1.13,1.41,0.7,1.69c-0.42,0.28-1.69,0.42-1.83,0C132.73,208.66,134,207.39,134,207.39z"/>
	<path d="M130.23,207.39c0.7,0.42,1.13,1.41,0.7,1.69c-0.42,0.28-1.69,0.42-1.83,0C128.97,208.66,130.23,207.39,130.23,207.39z"/>
	<path d="M114.06,221.53c0.7,0.42,1.13,1.41,0.7,1.69c-0.42,0.28-1.69,0.42-1.83,0C112.79,222.79,114.06,221.53,114.06,221.53z"/>
	<path d="M132.24,270.14c0.7,0.42,1.13,1.41,0.7,1.69c-0.42,0.28-1.69,0.42-1.83,0C130.97,271.41,132.24,270.14,132.24,270.14z"/>
	<path d="M144.37,266.8c0.7,0.42,1.13,1.41,0.7,1.69c-0.42,0.28-1.69,0.42-1.83,0C143.1,268.07,144.37,266.8,144.37,266.8z"/>
	<path d="M147.51,270.79c0.7,0.42,1.13,1.41,0.7,1.69c-0.42,0.28-1.69,0.42-1.83,0C146.24,272.06,147.51,270.79,147.51,270.79z"/>
	<path d="M130.51,335.51c0.7,0.42,1.13,1.41,0.7,1.69c-0.42,0.28-1.69,0.42-1.83,0C129.25,336.78,130.51,335.51,130.51,335.51z"/>
	<g>
		<path d="M203.36,179.7c0.87,0.17,1.61,0.63,2.35,1.06c0.74,0.44,1.44,0.93,2.15,1.42c1.4,0.99,2.76,2.04,4.09,3.12l0.98,0.83
			c0.34,0.3,0.61,0.58,0.96,0.77c0.66,0.41,1.54,0.62,2.07,0.22c0.27-0.19,0.43-0.52,0.53-0.89c0.11-0.39,0.09-0.73,0.17-1.23
			c0.06-0.47,0.26-0.98,0.65-1.34c0.37-0.38,0.89-0.56,1.36-0.63c0.96-0.14,1.86,0.05,2.71,0.29c0.85,0.25,1.67,0.59,2.46,0.99
			c1.62,0.89,2.81,2.16,4.09,3.25c0.62,0.54,1.28,1.12,1.95,1.37c0.17,0.07,0.32,0.09,0.47,0.1c0.07-0.02,0.13-0.02,0.2-0.03
			l0.27-0.1c0.35-0.15,0.67-0.36,0.92-0.62c0.53-0.52,0.6-1.34,0.3-2.09c-0.28-0.76-0.83-1.43-1.4-2.06l0.07-0.07
			c0.68,0.53,1.32,1.14,1.75,1.95c0.21,0.4,0.34,0.87,0.33,1.36c-0.01,0.49-0.2,0.98-0.51,1.36c-0.3,0.39-0.7,0.68-1.12,0.89
			l-0.33,0.14c-0.13,0.04-0.28,0.07-0.43,0.09c-0.28,0.01-0.55-0.03-0.79-0.11c-0.95-0.32-1.62-0.9-2.32-1.43
			c-1.34-1.09-2.55-2.33-3.91-3.14c-0.72-0.4-1.48-0.75-2.26-1c-0.77-0.25-1.59-0.44-2.34-0.35c-0.76,0.06-1.3,0.54-1.4,1.3
			c-0.12,0.73-0.14,1.88-1.04,2.53c-0.44,0.31-1,0.35-1.46,0.26c-0.47-0.09-0.9-0.28-1.28-0.53c-0.39-0.24-0.72-0.59-1.01-0.86
			l-0.95-0.85c-1.28-1.13-2.59-2.22-3.94-3.26c-0.68-0.51-1.36-1.02-2.08-1.49c-0.71-0.45-1.44-0.94-2.26-1.13L203.36,179.7z"/>
	</g>
	<g>
		<path d="M217.21,173.26c-0.81-0.78-1.71-1.48-2.6-2.17c-0.88-0.7-1.78-1.38-2.7-2.04c-0.91-0.66-1.89-1.23-2.76-1.92
			c-0.9-0.67-1.74-1.38-2.7-1.97l0.02-0.1c1.2,0.09,2.26,0.67,3.24,1.24c0.99,0.59,1.83,1.38,2.7,2.11c1.72,1.49,3.4,3.02,4.87,4.77
			L217.21,173.26z"/>
	</g>
	<g>
		<path d="M212.8,177.83c-1.24-1.31-2.64-2.47-4.02-3.63c-1.38-1.16-2.8-2.29-4.26-3.34c-1.46-1.06-2.98-2.01-4.47-3
			c-1.5-0.97-3-1.91-4.69-2.57l0.02-0.1c1.86,0.13,3.6,0.94,5.2,1.81c1.6,0.91,3.03,2.07,4.43,3.22c1.41,1.15,2.77,2.36,4.1,3.6
			c1.3,1.27,2.61,2.53,3.76,3.94L212.8,177.83z"/>
	</g>
	<g>
		<path d="M191.58,171.94c-0.48-0.68-1.12-1.23-1.77-1.74c-0.65-0.52-1.33-0.99-2.04-1.42c-0.71-0.44-1.47-0.76-2.16-1.21
			c-0.7-0.44-1.38-0.87-2.11-1.37l0.03-0.1c0.9-0.03,1.75,0.24,2.55,0.58c0.8,0.34,1.47,0.91,2.15,1.44
			c0.67,0.53,1.32,1.1,1.92,1.71c0.58,0.63,1.14,1.29,1.52,2.06L191.58,171.94z"/>
	</g>
	<g>
		<path d="M188.21,176c-1.1-1.09-2.15-2.22-3.34-3.19c-1.16-0.99-2.45-1.81-3.81-2.47c-1.37-0.65-2.83-1.06-4.26-1.52
			c-1.44-0.48-2.93-0.8-4.43-1.26l0.01-0.1c1.56-0.08,3.14,0.03,4.68,0.39c1.54,0.35,3,1,4.38,1.78c1.37,0.78,2.65,1.72,3.78,2.81
			c1.13,1.09,2.08,2.32,3.08,3.49L188.21,176z"/>
	</g>
	<g>
		<path d="M190.58,187.14c-0.78-1.2-1.86-2.21-2.89-3.22c-0.53-0.5-1.07-0.98-1.61-1.46l-1.67-1.39c-2.24-1.83-4.63-3.49-7.12-4.95
			c-2.5-1.44-5.11-2.67-7.81-3.62c-2.69-0.99-5.49-1.62-8.4-1.89l0-0.1c2.93-0.31,5.9,0.19,8.72,1.04c2.84,0.86,5.43,2.34,7.91,3.88
			c2.48,1.56,4.83,3.32,7.03,5.25l1.61,1.48c0.52,0.51,1.04,1.02,1.55,1.55c0.99,1.07,2.02,2.12,2.77,3.39L190.58,187.14z"/>
	</g>
	<g>
		<path d="M182.49,190.42c-1.38-1.32-2.93-2.45-4.54-3.44c-1.61-1.01-3.3-1.87-5.05-2.58c-1.75-0.72-3.58-1.2-5.39-1.71
			c-1.81-0.55-3.67-0.87-5.54-1.33l0.01-0.1c1.92-0.09,3.88,0.03,5.77,0.46c1.9,0.4,3.73,1.11,5.47,1.95
			c3.5,1.65,6.74,3.86,9.34,6.69L182.49,190.42z"/>
	</g>
	<g>
		<path d="M175.17,198.23c-2.51-1.95-5.36-3.4-8.36-4.31c-1.5-0.45-3.05-0.69-4.58-0.99c-1.53-0.33-3.09-0.48-4.68-0.78l0-0.1
			c1.59-0.25,3.22-0.31,4.83-0.11c1.61,0.19,3.18,0.66,4.69,1.22c1.51,0.57,2.97,1.27,4.35,2.09c1.37,0.84,2.65,1.82,3.82,2.9
			L175.17,198.23z"/>
	</g>
	<g>
		<path d="M109.58,201.28c2.87-1.89,5.65-3.92,8.52-5.82c2.87-1.9,5.78-3.75,8.78-5.46c2.99-1.71,6.04-3.37,9.28-4.62
			c3.23-1.21,6.65-2.22,10.13-2.17l0.01,0.1c-3.4,0.53-6.63,1.64-9.76,3c-3.13,1.35-6.24,2.78-9.27,4.39
			c-3.03,1.61-5.98,3.37-8.9,5.18c-2.94,1.79-5.79,3.7-8.74,5.49L109.58,201.28z"/>
	</g>
	<g>
		<path d="M131.83,215.42c0.73-0.18,1.48-0.2,2.22-0.21c0.74,0.02,1.49,0.08,2.23,0.19c0.74,0.13,1.52,0.24,2.21,0.68
			c0.17,0.1,0.33,0.22,0.49,0.37c0.15,0.13,0.3,0.29,0.41,0.47c0.26,0.33,0.35,0.81,0.29,1.19l-0.1,0.01
			c-0.39-0.65-0.95-0.89-1.56-1.16c-0.61-0.24-1.23-0.58-1.91-0.78c-0.68-0.2-1.38-0.36-2.1-0.47c-0.71-0.12-1.44-0.23-2.16-0.19
			L131.83,215.42z"/>
	</g>
	<g>
		<path d="M120.46,220.77c1.22-0.66,2.54-1.07,3.88-1.41c1.35-0.31,2.74-0.49,4.14-0.49c1.4-0.01,2.86,0.15,4.17,0.77
			c1.3,0.62,2.44,1.6,3.12,2.83l-0.08,0.06c-1.09-0.86-2.21-1.53-3.43-1.97c-1.21-0.44-2.48-0.8-3.81-0.9
			c-1.33-0.1-2.68-0.02-4.01,0.18c-1.33,0.2-2.68,0.48-3.93,1.01L120.46,220.77z"/>
	</g>
	<g>
		<path d="M76.54,238.7c4.28-2.5,8.61-4.93,12.99-7.26c2.18-1.18,4.36-2.38,6.64-3.37c1.15-0.48,2.3-0.96,3.47-1.38
			c1.19-0.36,2.37-0.85,3.67-0.84v0.1c-0.3,0.09-0.59,0.16-0.88,0.25l-0.85,0.36c-0.57,0.23-1.12,0.52-1.68,0.77
			c-1.11,0.55-2.22,1.07-3.32,1.65c-2.21,1.11-4.47,2.1-6.7,3.18c-4.45,2.17-8.88,4.39-13.3,6.64L76.54,238.7z"/>
	</g>
	<g>
		<path d="M23.89,233.6c1.12,0.97,2.54,1.59,3.93,2.15c1.41,0.54,2.86,0.95,4.34,1.27c2.95,0.65,5.96,0.94,8.97,1.03
			c6.05,0.12,12.11,0.03,18.17-0.04c6.06-0.07,12.12-0.18,18.18-0.32c3.03-0.08,6.06-0.16,9.08-0.28c1.51-0.06,3.03-0.12,4.52-0.22
			c0.37-0.02,0.75-0.05,1.09-0.09l0.52-0.06l0.46-0.14c0.64-0.22,1.34-0.52,2.01-0.83c5.43-2.56,10.74-5.53,16.25-8.16
			c1.38-0.65,2.78-1.28,4.24-1.85c0.75-0.27,1.48-0.54,2.39-0.7c0.81-0.12,1.54-0.18,2.32-0.24c3.07-0.21,6.13-0.33,9.28,0.03
			c0.78,0.09,1.58,0.26,2.39,0.49l0.61,0.21c0.21,0.09,0.42,0.2,0.62,0.3c0.32,0.16,0.54,0.28,0.86,0.38
			c1.22,0.38,2.67,0.35,4.03,0.05c1.37-0.3,2.68-0.88,3.78-1.71c0.56-0.44,1-0.87,1.5-1.48c0.49-0.57,0.97-1.14,1.44-1.72
			c0.92-1.16,1.83-2.37,2.46-3.64c0.3-0.61,0.51-1.35,0.3-1.65c-0.36-0.51-0.93-1.06-1.46-1.57c-1.08-1.03-2.24-1.99-3.46-2.88
			c-0.61-0.44-1.23-0.86-1.88-1.23c-0.64-0.38-1.32-0.73-2.04-0.85l0.02-0.2c0.79,0.06,1.52,0.37,2.21,0.69
			c0.69,0.33,1.36,0.71,2.01,1.12c1.3,0.81,2.55,1.7,3.74,2.67c0.59,0.51,1.16,0.97,1.72,1.67c0.34,0.47,0.33,1.05,0.26,1.48
			c-0.07,0.44-0.21,0.84-0.37,1.21c-0.64,1.49-1.51,2.76-2.4,4.02c-0.45,0.63-0.91,1.24-1.38,1.84c-0.44,0.59-1.06,1.25-1.68,1.76
			c-1.29,1.04-2.79,1.75-4.37,2.15c-1.58,0.38-3.26,0.52-4.96,0.05c-0.21-0.07-0.43-0.12-0.63-0.22l-0.6-0.28l-0.41-0.18l-0.47-0.15
			c-0.65-0.16-1.35-0.29-2.07-0.35c-2.89-0.31-5.91-0.17-8.88,0.06c-0.73,0.07-1.52,0.11-2.2,0.22c-0.59,0.09-1.29,0.33-1.97,0.57
			c-1.37,0.51-2.75,1.11-4.12,1.74c-5.5,2.48-10.84,5.33-16.43,7.82c-0.71,0.31-1.41,0.61-2.21,0.86l-0.63,0.17l-0.61,0.06
			c-0.42,0.05-0.79,0.06-1.18,0.08c-1.53,0.08-3.05,0.12-4.57,0.15c-3.04,0.07-6.07,0.1-9.1,0.13c-6.07,0.05-12.13,0.05-18.2,0.02
			c-6.07-0.06-12.13-0.1-18.2-0.36c-3.04-0.16-6.08-0.52-9.04-1.24c-1.48-0.36-2.94-0.8-4.36-1.38c-1.4-0.6-2.8-1.24-3.96-2.29
			L23.89,233.6z"/>
	</g>
	<path class="st3" d="M148.24,214.9c1.62,0.56,7.34,0.19,8.84-1.69c1.5-1.88,1.5-5.57-6.95-7.43"/>
	<g>
		<path d="M205.86,192.21c4.16,4.02,5.84,10.62,3.27,16.12c-0.26,0.31-0.73,0.57-1.19,0.52c-0.44-0.05-0.83-0.22-1.14-0.44
			c-0.64-0.43-1.16-0.94-1.68-1.45c-1.03-1.03-1.98-2.12-2.9-3.24c-0.92-1.12-1.8-2.25-2.61-3.48c-0.43-0.66-0.68-1.25-1.15-1.69
			c-0.2-0.21-0.53-0.43-0.61-0.43c0,0.02,0.15,0,0.24-0.13c0.03-0.05,0.04-0.06,0.03-0.09c0.01,0.01,0.01,0.02,0.01,0.03
			c0.02,0.1,0.06,0.21,0.13,0.34c0.3,0.55,0.76,1.14,1.16,1.73c0.42,0.6,0.85,1.19,1.16,1.96c0.07,0.21,0.15,0.41,0.15,0.7
			c0.03,0.27-0.08,0.64-0.35,0.9c-0.19,0.18-0.39,0.47-0.58,0.75c-0.39,0.58-0.79,1.22-1.33,1.8c-0.27,0.29-0.58,0.58-0.99,0.79
			c-0.4,0.21-0.94,0.34-1.42,0.22c-0.26-0.03-0.45-0.15-0.67-0.24c-0.17-0.1-0.35-0.21-0.51-0.32c-0.32-0.22-0.61-0.45-0.9-0.69
			c-1.13-0.95-2.15-1.96-3.22-2.86c-0.53-0.45-1.09-0.87-1.64-1.18c-0.28-0.16-0.56-0.26-0.8-0.32c-0.22-0.02-0.41-0.03-0.63,0.1
			c-0.44,0.2-0.86,0.72-1.22,1.26c-0.36,0.56-0.68,1.17-1,1.81c-0.16,0.32-0.31,0.64-0.52,1c-0.11,0.18-0.19,0.35-0.45,0.61
			c-0.21,0.19-0.38,0.3-0.6,0.42c-0.82,0.44-1.77,0.49-2.6,0.32c-0.83-0.16-1.57-0.52-2.23-0.92c-0.34-0.2-0.65-0.43-0.95-0.66
			c-0.29-0.21-0.55-0.42-0.84-0.61c-2.28-1.55-4.9-2.63-7.57-3.56c-0.67-0.23-1.35-0.47-1.99-0.63c-0.67-0.17-1.35-0.33-2.05-0.46
			c-1.39-0.28-2.79-0.53-4.2-0.75c-2.81-0.45-5.66-0.87-8.45-1.12c-0.35-0.03-0.68-0.05-1.01-0.07c-0.3,0-0.58,0.01-0.87,0.06
			c-0.56,0.1-1.15,0.32-1.49,0.61c-0.05,0.03-0.08,0.07-0.1,0.09l-0.04,0.04l0,0c-0.02,0.02,0.06-0.08,0.04-0.18
			c0.02-0.1,0-0.22-0.05-0.31c-0.03-0.1-0.09-0.21-0.18-0.27c-0.08-0.06-0.07-0.07-0.13-0.1c-0.04-0.02-0.09-0.02-0.07-0.03
			c0.02-0.01-0.02,0.01,0.06,0l0.15,0l0.31-0.01c0.81-0.01,1.52,0.06,2.25,0.11c2.88,0.27,5.75,0.71,8.52,0.87
			c0.58,0.02,1.48-0.03,2.23,0.1c0.77,0.11,1.52,0.28,2.28,0.59c0.19,0.08,0.38,0.17,0.58,0.29c0.2,0.12,0.41,0.24,0.66,0.57
			c0.06,0.11,0.12,0.16,0.17,0.34c0.02,0.08,0.04,0.16,0.05,0.25l0.01,0.07c0,0.01,0.01,0.08,0.02,0.14l0.12,0.49
			c0.08,0.37,0.2,0.82,0.08,1.4c-0.13,0.6-0.6,1.13-1.22,1.27c-0.56,0.13-0.96,0.04-1.35-0.01l-1.07-0.21
			c-0.69-0.14-1.29-0.22-1.79-0.01c-0.65,0.25-1.29,0.54-1.91,0.86c-0.31,0.16-0.62,0.32-0.9,0.5c-0.14,0.09-0.28,0.18-0.39,0.27
			l-0.22,0.19c-0.1,0.07-0.2,0.14-0.29,0.18c-0.76,0.36-1.54,0.48-2.34,0.39c-0.4-0.05-0.79-0.17-1.15-0.36
			c-0.18-0.11-0.34-0.22-0.49-0.36c-0.15-0.13-0.23-0.22-0.38-0.31c-0.54-0.36-1.23-0.55-1.92-0.67c-0.34-0.06-0.7-0.1-1.04-0.1
			c-0.17,0-0.35,0.01-0.51,0.04c-0.08,0.01-0.17,0.04-0.2,0.07c-0.01,0.02,0-0.01-0.01-0.01c0,0.01,0.02,0.04,0.05,0.06l-0.12,0.16
			c-0.04-0.03-0.09-0.07-0.13-0.14c-0.04-0.09,0.01-0.2,0.06-0.25c0.1-0.09,0.2-0.11,0.29-0.14c0.19-0.05,0.37-0.08,0.56-0.1
			c0.37-0.03,0.74-0.03,1.11,0c0.73,0.07,1.47,0.2,2.17,0.58c0.17,0.08,0.36,0.24,0.48,0.33c0.12,0.1,0.26,0.17,0.4,0.24
			c0.28,0.13,0.59,0.19,0.91,0.21c0.63,0.03,1.31-0.14,1.83-0.45c0.07-0.04,0.11-0.08,0.16-0.11l0.18-0.17
			c0.16-0.14,0.32-0.26,0.47-0.37c0.31-0.22,0.63-0.41,0.95-0.6c0.64-0.37,1.29-0.71,1.96-1.01c0.84-0.39,1.74-0.28,2.45-0.18
			l1.05,0.15c0.32,0.04,0.65,0.05,0.79-0.01c0.08-0.03,0.15-0.11,0.16-0.22c0.02-0.14-0.02-0.41-0.12-0.72
			c-0.05-0.16-0.1-0.33-0.15-0.55c-0.02-0.11-0.05-0.22-0.06-0.39c0-0.02,0-0.13-0.01-0.07c0,0.04,0,0.08,0.01,0.12
			c0.04,0.09,0.03,0.08,0.05,0.11c0.03,0.04-0.06-0.05-0.17-0.1c-0.11-0.06-0.25-0.12-0.39-0.17c-0.58-0.22-1.24-0.35-1.89-0.42
			c-0.68-0.09-1.22-0.02-2.07-0.01c-2.97-0.08-5.8-0.43-8.64-0.6c-0.7-0.05-1.42-0.1-2.05-0.09l-0.62,0.01
			c-0.27-0.03-0.63-0.01-1.15-0.43c-0.14-0.14-0.26-0.32-0.33-0.49c-0.06-0.18-0.08-0.39-0.08-0.58c0.03-0.27,0.14-0.56,0.23-0.68
			c0.1-0.17,0.2-0.29,0.3-0.39c0.1-0.11,0.2-0.2,0.29-0.27c0.78-0.62,1.58-0.89,2.43-1.06c0.42-0.08,0.85-0.11,1.27-0.1
			c0.39,0.01,0.77,0.03,1.14,0.07c2.93,0.27,5.76,0.75,8.61,1.24c1.42,0.26,2.84,0.54,4.26,0.86c0.71,0.16,1.42,0.33,2.14,0.54
			c0.75,0.22,1.42,0.47,2.1,0.72c2.72,1.02,5.44,2.19,7.89,3.93c0.31,0.21,0.6,0.45,0.9,0.67c0.26,0.2,0.53,0.41,0.81,0.58
			c0.55,0.35,1.13,0.63,1.71,0.75c0.57,0.12,1.14,0.09,1.6-0.15c0.11-0.05,0.23-0.14,0.29-0.19c0-0.01,0.02-0.01,0.06-0.09
			c0.04-0.05,0.07-0.1,0.11-0.18c0.16-0.27,0.32-0.59,0.49-0.91c0.33-0.64,0.68-1.3,1.12-1.94c0.45-0.62,0.93-1.3,1.81-1.72
			c0.42-0.23,0.99-0.27,1.47-0.18c0.46,0.11,0.85,0.28,1.19,0.48c0.69,0.4,1.28,0.87,1.83,1.36c1.11,0.96,2.12,1.99,3.17,2.91
			c0.26,0.22,0.53,0.44,0.8,0.63c0.13,0.09,0.27,0.17,0.4,0.26c0.12,0.03,0.23,0.13,0.34,0.12c0.41,0.12,0.9-0.16,1.34-0.63
			c0.44-0.47,0.83-1.05,1.25-1.65c0.22-0.3,0.43-0.62,0.76-0.92c-0.02-0.01,0.01,0.02,0-0.08c0.01-0.08-0.03-0.22-0.08-0.35
			c-0.22-0.56-0.61-1.16-1.01-1.74c-0.4-0.6-0.83-1.15-1.21-1.87c-0.09-0.19-0.18-0.41-0.22-0.67c-0.01-0.08-0.01-0.16,0-0.24
			c0.03-0.12,0.04-0.22,0.12-0.34c0.18-0.3,0.54-0.34,0.71-0.31c0.64,0.15,0.86,0.45,1.17,0.73c0.58,0.57,0.89,1.33,1.23,1.88
			c0.74,1.19,1.6,2.34,2.48,3.46c0.88,1.12,1.8,2.22,2.77,3.25c0.49,0.5,1,1.01,1.54,1.4c0.54,0.39,1.15,0.54,1.53,0.06
			c0.42-0.44,0.62-1.15,0.78-1.81c0.16-0.68,0.25-1.39,0.32-2.09c0.07-0.71,0.11-1.42,0.1-2.12c-0.04-0.7-0.1-1.41-0.26-2.1
			c-0.28-1.39-0.78-2.73-1.41-4.01c-0.65-1.25-1.41-2.5-2.48-3.42L205.86,192.21z"/>
	</g>
	<path d="M108.77,223.73c0.7,0.42,1.13,1.41,0.7,1.69c-0.42,0.28-1.69,0.42-1.83,0C107.51,224.99,108.77,223.73,108.77,223.73z"/>
	<g>
		<path d="M217.18,204.17c-2.14,1.54-4.08,3.38-5.85,5.34c-0.88,0.98-1.72,2-2.43,3.09c-0.73,1.08-1.35,2.24-1.74,3.45
			c-0.22,0.6-0.29,1.23-0.36,1.84l0.03,0.92c0.02,0.32,0.08,0.66,0.11,0.99c0.15,1.33,0.2,2.67,0.21,4.01
			c-0.02,1.33-0.04,2.66-0.09,3.99c-0.03,0.66-0.05,1.32-0.04,1.98c0,0.33,0.01,0.65,0.05,0.97c0.05,0.3,0.09,0.67,0.34,0.82
			l-0.03,0.09c-0.38-0.14-0.49-0.55-0.59-0.85c-0.1-0.33-0.16-0.66-0.22-1c-0.1-0.67-0.15-1.34-0.21-2
			c-0.1-1.33-0.12-2.66-0.21-3.97c-0.05-1.32-0.11-2.63-0.2-3.94c-0.02-0.33-0.05-0.65-0.06-0.99l0.02-1.07
			c0.11-0.7,0.23-1.39,0.5-2.03c0.47-1.3,1.16-2.48,1.96-3.56c0.78-1.1,1.67-2.1,2.6-3.06c1.89-1.89,3.92-3.63,6.16-5.08
			L217.18,204.17z"/>
	</g>
	<g>
		<path d="M206.87,208.08c-1.2,1.93-2.25,3.94-2.89,6.07c-0.32,1.07-0.46,2.16-0.66,3.23c-0.18,1.08-0.28,2.17-0.39,3.33l-0.1,0.02
			c-0.43-1.09-0.56-2.28-0.5-3.46c0.06-1.18,0.48-2.3,0.89-3.38c0.43-1.08,0.96-2.11,1.55-3.09c0.61-0.97,1.3-1.89,2.01-2.78
			L206.87,208.08z"/>
	</g>
	<g>
		<path d="M203.71,204.89c-1.96,2.51-3.4,5.42-4.23,8.47c-0.41,1.53-0.66,3.09-0.74,4.66c-0.09,1.57,0.08,3.14,0.34,4.69
			c0.61,3.12,1.54,6.15,2.49,9.18c0.95,3.03,2.02,6.04,3.26,8.97l-0.08,0.06c-1.77-2.71-2.98-5.7-4.12-8.71
			c-1.09-3.03-1.82-6.18-2.34-9.36c-0.22-1.61-0.34-3.24-0.2-4.87c0.13-1.62,0.44-3.22,0.91-4.76c0.98-3.08,2.56-5.95,4.64-8.4
			L203.71,204.89z"/>
	</g>
	<g>
		<path d="M200.95,202.55c-2.09,2.02-4.05,4.21-5.53,6.69c-0.74,1.23-1.37,2.54-1.75,3.9c-0.08,0.35-0.18,0.69-0.23,1.03l-0.12,1.05
			l0.01,1.05l0.07,1.1c0.17,2.93,0.21,5.84,0.48,8.69c0.23,2.85,0.93,5.67,2.49,8.15l-0.08,0.06c-2.05-2.16-3-5.18-3.4-8.09
			c-0.4-2.95-0.22-5.88-0.28-8.78l-0.03-1.09l0.03-1.14c0.05-0.38,0.11-0.75,0.17-1.12c0.07-0.37,0.19-0.73,0.29-1.09
			c0.45-1.43,1.15-2.75,1.95-3.99c1.63-2.46,3.7-4.57,5.89-6.5L200.95,202.55z"/>
	</g>
	<g>
		<path d="M192.98,205.27c-1.68,2.17-3.04,4.6-3.98,7.16c-0.93,2.56-1.39,5.29-1.07,7.97c0.3,2.71,0.97,5.36,1.77,7.95
			c0.38,1.31,0.86,2.58,1.38,3.84c0.53,1.25,1.1,2.5,1.9,3.61l-0.07,0.07c-1.04-0.95-1.78-2.16-2.46-3.38
			c-0.67-1.23-1.21-2.52-1.7-3.83c-0.95-2.63-1.42-5.42-1.62-8.2c-0.23-2.82,0.36-5.65,1.4-8.22c1.08-2.57,2.57-4.94,4.37-7.04
			L192.98,205.27z"/>
	</g>
	<g>
		<path d="M188.93,202.55c-0.64,0.48-1.15,1.11-1.63,1.76c-0.49,0.64-0.92,1.32-1.33,2.01c-0.81,1.39-1.49,2.86-2.03,4.37
			c-0.54,1.51-0.92,3.07-1.06,4.65c-0.17,1.59,0.03,3.14,0.22,4.77c0.36,3.22,0.69,6.43,1.43,9.52c0.7,3.09,2.12,6,4.41,8.32
			l-0.06,0.08c-1.33-0.95-2.46-2.19-3.34-3.6c-0.89-1.4-1.5-2.96-1.97-4.54c-0.91-3.19-1.02-6.48-1.26-9.7
			c-0.13-1.58-0.3-3.28-0.06-4.92c0.21-1.64,0.65-3.23,1.24-4.76c0.61-1.52,1.36-2.97,2.24-4.35c0.45-0.68,0.91-1.35,1.43-1.98
			c0.51-0.63,1.06-1.25,1.74-1.72L188.93,202.55z"/>
	</g>
	<g>
		<path d="M177.4,205.26c-2.4,3.48-4.43,7.26-5.51,11.34c-0.55,2.03-0.87,4.12-0.89,6.21l0.04,1.57l0.1,1.59l0.22,3.17
			c0.32,4.22,0.95,8.38,2.38,12.31c0.68,1.98,1.58,3.88,2.49,5.79c0.45,0.95,0.92,1.9,1.42,2.83c0.5,0.91,1,1.89,1.7,2.62
			l-0.04,0.09c-0.47-0.32-0.78-0.75-1.12-1.17c-0.33-0.42-0.63-0.86-0.93-1.31c-0.58-0.9-1.12-1.82-1.65-2.74
			c-1.04-1.86-2-3.77-2.8-5.77c-0.77-2.01-1.32-4.11-1.65-6.23c-0.32-2.12-0.48-4.25-0.59-6.38l-0.15-3.18l-0.06-1.59l0-1.61
			c0.07-2.15,0.45-4.28,1.06-6.33c1.23-4.11,3.4-7.85,5.91-11.26L177.4,205.26z"/>
	</g>
	<g>
		<path d="M181.33,206.28c-2,4.38-3.52,8.98-4.27,13.69c-0.36,2.35-0.5,4.73-0.27,7.06c0.08,0.58,0.13,1.16,0.24,1.73l0.39,1.7
			l1,3.46c1.37,4.59,3.03,9.08,5.24,13.28c2.26,4.16,4.99,8.08,8.42,11.35c3.36,3.32,7.39,5.95,11.59,8.26
			c2.1,1.16,4.25,2.21,6.45,3.16c2.22,0.91,4.47,1.75,6.78,2.4c2.31,0.64,4.65,1.21,7.03,1.57c2.37,0.37,4.76,0.62,7.16,0.77
			c4.8,0.36,9.6-0.01,14.4-0.38c9.59-0.86,19.17-2.01,28.69-3.43c2.38-0.36,4.75-0.76,7.09-1.21c1.17-0.24,2.34-0.47,3.47-0.77
			c0.59-0.13,1.12-0.3,1.64-0.48c0.51-0.15,1.1-0.42,1.65-0.64c4.49-1.83,9.04-3.49,13.65-5.01c4.63-1.45,9.3-2.87,14.23-3.49
			c0.62-0.07,1.23-0.15,1.87-0.15c0.64-0.03,1.26-0.04,1.85-0.03l3.61-0.01c2.41-0.01,4.84-0.03,7.27,0.05
			c4.85,0.17,9.79,0.7,14.4,2.48c2.28,0.92,4.43,1.97,6.61,3.02c2.17,1.06,4.33,2.15,6.43,3.36l-0.1,0.18
			c-4.34-2.07-8.82-3.93-13.3-5.61c-4.49-1.54-9.32-1.81-14.09-1.86c-2.39-0.02-4.79,0.06-7.21,0.13l-3.63,0.1
			c-0.62,0-1.2,0.03-1.77,0.07c-0.57,0.02-1.15,0.11-1.73,0.18c-4.64,0.71-9.26,2.1-13.81,3.6c-4.56,1.5-9.06,3.17-13.54,4.92
			c-0.57,0.22-1.08,0.45-1.73,0.64c-0.62,0.21-1.24,0.39-1.84,0.52c-1.21,0.31-2.4,0.52-3.6,0.75c-2.4,0.43-4.79,0.79-7.19,1.12
			c-9.59,1.31-19.23,2.18-28.89,2.66c-4.82,0.25-9.69,0.36-14.52-0.01c-4.83-0.35-9.64-1.13-14.32-2.41
			c-4.68-1.27-9.23-3.03-13.58-5.2c-1.09-0.53-2.15-1.13-3.23-1.7c-1.04-0.63-2.11-1.2-3.14-1.87c-1.02-0.69-2.08-1.32-3.02-2.1
			l-1.46-1.13l-1.37-1.24c-3.65-3.32-6.55-7.4-8.84-11.73c-1.11-2.19-2.1-4.43-2.96-6.72c-0.84-2.29-1.56-4.62-2.2-6.96
			c-0.32-1.17-0.63-2.34-0.92-3.52l-0.36-1.84c-0.1-0.62-0.13-1.24-0.19-1.86c-0.15-2.48,0.09-4.95,0.56-7.35
			c0.46-2.41,1.19-4.74,2.05-7.01c0.86-2.27,1.89-4.48,3.07-6.59L181.33,206.28z"/>
	</g>
	<g>
		<path d="M173.06,201.65c-1.41,2.58-2.96,5.08-4.22,7.73c-1.29,2.63-2.39,5.35-3.18,8.16c-0.79,2.81-1.26,5.71-1.22,8.61
			c0.04,2.89,0.63,5.78,1.23,8.64c0.62,2.86,1.41,5.68,2.33,8.44c0.92,2.77,1.93,5.51,3.15,8.15c1.19,2.66,2.57,5.23,4.2,7.64
			c1.64,2.4,3.56,4.64,5.97,6.33l-0.05,0.08c-2.56-1.48-4.7-3.64-6.48-6.01c-1.79-2.37-3.24-4.97-4.54-7.63
			c-1.28-2.67-2.31-5.45-3.19-8.27c-0.87-2.82-1.61-5.69-2.17-8.58c-0.55-2.89-1.1-5.81-1.1-8.8c0.01-2.98,0.54-5.92,1.39-8.75
			c0.86-2.83,2.04-5.55,3.39-8.16c1.33-2.63,2.94-5.1,4.4-7.64L173.06,201.65z"/>
	</g>
	<g>
		<path d="M168.77,200.03c-2.61,3.96-4.87,8.17-6.73,12.53c-1.83,4.34-3.37,8.95-3.01,13.66c0.21,4.76,0.35,9.51,1.06,14.16
			c0.68,4.63,2.21,9.22,5.3,12.88l-0.07,0.07c-1.75-1.64-3.12-3.68-4.12-5.87c-1.01-2.2-1.64-4.55-2.09-6.91
			c-0.86-4.75-0.77-9.56-0.88-14.3c-0.02-0.59-0.03-1.18,0-1.8c0.01-0.61,0.03-1.22,0.14-1.82c0.13-1.21,0.42-2.38,0.72-3.54
			c0.62-2.32,1.52-4.55,2.5-6.73c2-4.34,4.38-8.49,7.11-12.39L168.77,200.03z"/>
	</g>
	<g>
		<path d="M158.63,206.74c-0.24,1.46-0.68,2.85-1.05,4.26l-1.16,4.23c-0.75,2.82-1.46,5.66-1.92,8.53c-0.24,1.44-0.34,2.86-0.3,4.32
			l0,4.39c0.01,2.92,0.07,5.83,0.39,8.72c0.32,2.88,0.84,5.75,1.87,8.43c0.99,2.67,2.58,5.13,4.16,7.56
			c1.58,2.44,3.31,4.78,5.08,7.1c0.88,1.16,1.79,2.31,2.7,3.44c0.91,1.14,1.82,2.29,2.81,3.36l-0.07,0.07
			c-2.14-2.01-4.09-4.21-5.98-6.44c-1.9-2.24-3.68-4.57-5.37-6.98c-1.64-2.44-3.26-4.93-4.26-7.78c-1.01-2.81-1.47-5.76-1.74-8.69
			c-0.27-2.93-0.28-5.87-0.24-8.8l0.07-4.38c-0.02-1.46,0.12-2.97,0.38-4.41c0.53-2.89,1.31-5.72,2.13-8.53l1.26-4.2
			c0.41-1.4,0.88-2.79,1.15-4.22L158.63,206.74z"/>
	</g>
	<g>
		<path d="M151.22,215.4c-0.55,2.75-1.25,5.45-1.69,8.21c-0.47,2.75-0.79,5.52-0.86,8.3c-0.07,2.77,0.11,5.56,0.73,8.25
			c0.6,2.68,1.82,5.22,2.75,7.86c1.98,5.23,3.75,10.55,6.43,15.37c0.68,1.2,1.41,2.37,2.24,3.46c0.82,1.1,1.75,2.13,2.66,3.19
			c0.91,1.06,1.83,2.11,2.77,3.14c0.93,1.04,1.85,2.1,2.87,3.04l-0.06,0.08c-2.19-1.77-4.14-3.79-6.09-5.8
			c-0.98-1-1.93-2.03-2.83-3.13c-0.9-1.1-1.69-2.28-2.43-3.49c-2.88-4.91-4.45-10.35-6.32-15.6c-0.88-2.64-2.05-5.2-2.64-8
			c-0.59-2.77-0.72-5.61-0.6-8.41c0.13-2.81,0.52-5.59,1.06-8.34c0.51-2.75,1.28-5.45,1.89-8.17L151.22,215.4z"/>
	</g>
	<g>
		<path d="M141.93,225.88c-0.13,3.86-0.06,7.73,0.18,11.58c0.28,3.84,0.72,7.69,1.64,11.42c0.46,1.87,1.07,3.69,1.87,5.42l2.53,5.21
			c1.72,3.45,3.55,6.85,5.7,10.03c2.16,3.17,4.63,6.13,7.47,8.68c2.84,2.56,6.08,4.6,9.52,6.29c3.42,1.72,7.02,3.11,10.71,4.19
			c1.84,0.56,3.71,1.02,5.59,1.42c1.88,0.4,3.79,0.76,5.7,0.94v0.1c-3.88-0.16-7.72-0.82-11.48-1.78c-3.77-0.95-7.44-2.3-10.96-3.96
			c-1.76-0.84-3.46-1.79-5.12-2.85c-0.84-0.51-1.59-1.14-2.39-1.71c-0.76-0.62-1.51-1.25-2.24-1.9c-2.87-2.66-5.33-5.73-7.47-8.97
			c-2.14-3.25-3.94-6.7-5.62-10.19l-2.47-5.25c-0.8-1.79-1.4-3.65-1.83-5.55c-0.87-3.79-1.24-7.66-1.46-11.52
			c-0.18-3.87-0.18-7.74,0.02-11.6L141.93,225.88z"/>
	</g>
	<g>
		<path d="M136.2,227.7c-0.05,3.09,0.02,6.18,0.18,9.26c0.14,3.08,0.38,6.16,0.76,9.22c0.39,3.06,0.97,6.08,1.66,9.05
			c0.33,1.49,0.77,2.96,1.3,4.39c0.53,1.42,1.19,2.81,2.1,4.06l-0.07,0.07c-1.14-1.07-1.98-2.44-2.67-3.85
			c-0.69-1.42-1.19-2.91-1.62-4.41c-0.84-3.02-1.21-6.12-1.49-9.21c-0.56-6.18-0.6-12.39-0.24-18.57L136.2,227.7z"/>
	</g>
	<g>
		<path d="M130.19,226.23c-0.91,3.46-1.38,7.01-1.37,10.54c0.02,1.77,0.26,3.51,0.45,5.26c0.19,1.75,0.57,3.46,0.92,5.23l-0.09,0.04
			c-0.87-1.59-1.48-3.32-1.82-5.11c-0.33-1.79-0.35-3.62-0.26-5.43c0.17-3.61,0.89-7.18,2.08-10.55L130.19,226.23z"/>
	</g>
	<g>
		<path d="M124.85,225.97c-0.73,1.63-1.2,3.37-1.66,5.1c-0.44,1.74-0.79,3.49-1.06,5.26c-0.51,3.52-0.73,7.15-0.03,10.6
			c0.17,0.85,0.41,1.73,0.62,2.61c0.21,0.88,0.4,1.76,0.58,2.65c0.36,1.77,0.64,3.54,1.03,5.26c0.69,3.48,2.32,6.66,4.11,9.78
			l-0.08,0.06c-2.26-2.79-4.1-6.04-5-9.61c-0.44-1.77-0.73-3.55-1.03-5.32c-0.15-0.88-0.31-1.76-0.48-2.64
			c-0.18-0.88-0.39-1.73-0.54-2.65c-0.63-3.63-0.29-7.29,0.32-10.84c0.34-1.77,0.76-3.53,1.26-5.26c0.52-1.72,1.06-3.45,1.86-5.07
			L124.85,225.97z"/>
	</g>
	<g>
		<path d="M119.71,226.24c-0.42,0.77-0.98,1.44-1.47,2.15c-0.51,0.7-0.97,1.43-1.4,2.18c-0.85,1.5-1.52,3.1-1.98,4.77
			c-0.95,3.33-0.95,6.83-0.65,10.27c0.59,6.88,1.7,13.75,3.68,20.36c0.5,1.65,1.07,3.28,1.81,4.82c0.74,1.52,1.71,2.99,2.59,4.47
			c1.8,2.95,3.67,5.87,5.59,8.74c1.92,2.87,3.91,5.7,6,8.45c2.09,2.74,4.27,5.43,6.65,7.91l1.84,1.8c0.65,0.55,1.28,1.14,1.95,1.66
			c1.34,1.01,2.83,1.92,4.29,2.85c2.92,1.87,5.82,3.75,8.76,5.57c2.93,1.84,5.88,3.63,8.91,5.28c3.03,1.63,6.13,3.16,9.38,4.15
			c1.6,0.45,3.34,0.73,5.03,1.06l5.1,0.94c3.4,0.6,6.82,1.15,10.25,1.58c3.42,0.4,6.88,0.76,10.31,0.56l5.18-0.37l2.59-0.19
			c0.85-0.09,1.74-0.1,2.54-0.4l0.04,0.09c-0.83,0.34-1.71,0.37-2.56,0.5l-2.58,0.28l-5.17,0.54c-3.49,0.28-6.97-0.04-10.42-0.38
			c-3.45-0.37-6.89-0.86-10.31-1.4l-5.13-0.85c-1.71-0.31-3.4-0.55-5.15-1c-3.38-1.03-6.52-2.59-9.58-4.24
			c-3.05-1.67-6.02-3.47-8.96-5.32c-2.93-1.86-5.82-3.77-8.72-5.66c-1.45-0.95-2.91-1.85-4.33-2.94c-0.69-0.54-1.33-1.15-1.99-1.72
			l-1.85-1.85c-2.4-2.54-4.57-5.25-6.65-8.03c-2.09-2.78-4.06-5.63-5.97-8.53c-1.91-2.9-3.75-5.83-5.54-8.8
			c-0.88-1.5-1.81-2.94-2.58-4.54c-0.74-1.59-1.31-3.24-1.8-4.91c-1.93-6.68-2.98-13.57-3.5-20.49c-0.27-3.44-0.24-6.99,0.75-10.34
			c0.48-1.67,1.17-3.28,2.04-4.79c0.45-0.74,0.91-1.48,1.43-2.17c0.5-0.71,1.07-1.37,1.48-2.12L119.71,226.24z"/>
	</g>
	<g>
		<path d="M100.72,234.3c0.25,5.45,0.55,10.89,1.05,16.32c0.25,2.71,0.54,5.42,0.96,8.11c0.2,1.35,0.48,2.67,0.82,3.98l1.06,3.96
			c1.37,5.28,2.79,10.54,4.64,15.66c0.92,2.56,1.96,5.07,3.19,7.48c1.2,2.43,2.75,4.63,4.3,6.89c3.07,4.5,6.2,8.96,9.63,13.17
			c1.72,2.1,3.51,4.14,5.41,6.07c1.92,1.91,3.95,3.69,6.14,5.25c2.15,1.61,4.59,2.79,7.03,4c2.44,1.19,4.93,2.28,7.46,3.26
			c2.53,0.98,5.11,1.83,7.76,2.44c2.64,0.62,5.35,1.02,8.07,0.9l0.01,0.1c-5.49,0.45-10.94-0.99-16.08-2.79
			c-2.59-0.91-5.11-1.99-7.59-3.14c-2.46-1.16-4.98-2.33-7.24-3.96c-2.25-1.61-4.33-3.43-6.27-5.37c-1.93-1.96-3.74-4.02-5.47-6.14
			c-3.42-4.29-6.5-8.81-9.53-13.34c-1.51-2.25-3.09-4.53-4.29-7.01c-1.22-2.46-2.25-5.01-3.15-7.59
			c-1.81-5.17-3.19-10.46-4.51-15.75l-1.01-3.96c-0.33-1.33-0.6-2.68-0.79-4.04c-0.4-2.71-0.65-5.43-0.87-8.15
			c-0.43-5.44-0.67-10.89-0.85-16.34L100.72,234.3z"/>
	</g>
	<g>
		<path d="M88.25,238.08c-0.47,7.22-1.14,14.51-0.14,21.67c0.25,1.78,0.62,3.55,1.27,5.21c0.3,0.82,0.7,1.67,1.05,2.51
			c0.33,0.85,0.68,1.69,0.98,2.55c1.26,3.41,2.39,6.86,3.56,10.29c1.18,3.43,2.37,6.85,3.71,10.2c0.68,1.67,1.38,3.33,2.19,4.92
			c0.38,0.81,0.84,1.57,1.29,2.33c0.49,0.71,1.02,1.4,1.63,2.09l6.87,8.43c1.14,1.41,2.29,2.8,3.48,4.17
			c0.59,0.69,1.18,1.37,1.8,2.02c0.63,0.64,1.25,1.33,2.02,1.76l-0.04,0.09c-0.85-0.4-1.5-1.05-2.18-1.65
			c-0.67-0.62-1.31-1.26-1.95-1.91c-1.26-1.32-2.47-2.66-3.67-4.02c-2.41-2.72-4.72-5.51-7.1-8.24c-0.59-0.66-1.18-1.41-1.72-2.18
			c-0.48-0.79-0.97-1.59-1.36-2.42c-0.84-1.64-1.51-3.34-2.19-5.03c-1.29-3.41-2.43-6.86-3.54-10.31
			c-1.12-3.45-2.21-6.91-3.41-10.32c-0.29-0.86-0.62-1.7-0.94-2.54c-0.34-0.84-0.7-1.64-1.01-2.53c-0.66-1.73-1.01-3.54-1.23-5.35
			c-0.88-7.26-0.07-14.54,0.53-21.74L88.25,238.08z"/>
	</g>
	<g>
		<path d="M74.27,238.74c-0.73,6.89-1.5,13.81-1.13,20.72c0.04,0.86,0.13,1.72,0.19,2.58c0.12,0.85,0.19,1.71,0.36,2.55
			c0.28,1.7,0.78,3.32,1.31,4.98c1.03,3.32,1.93,6.67,2.9,9.99c0.98,3.32,1.98,6.63,3.2,9.85c1.22,3.21,2.58,6.39,4.42,9.26
			c0.93,1.4,2.01,2.79,3.03,4.18c1.03,1.4,2.06,2.79,3.06,4.21l3.01,4.24l1.49,2.13c0.51,0.69,0.99,1.44,1.58,2.03l-0.05,0.09
			c-2.43-2.53-4.42-5.36-6.59-8.07l-3.19-4.1c-1.06-1.37-2.15-2.69-3.18-4.15c-1.94-2.96-3.33-6.19-4.51-9.47
			c-1.17-3.29-2.12-6.63-3.04-9.98c-0.92-3.34-1.78-6.7-2.75-10.02c-0.5-1.64-1-3.35-1.26-5.08c-0.16-0.86-0.22-1.73-0.33-2.6
			c-0.06-0.87-0.13-1.74-0.16-2.61c-0.24-6.97,0.67-13.88,1.53-20.74L74.27,238.74z"/>
	</g>
	<g>
		<path d="M59.81,238.75c-0.74,5.37-1.27,10.77-1.55,16.18c-0.13,2.7-0.19,5.41-0.09,8.11c0.12,2.69,0.32,5.41,1.24,7.9
			c0.92,2.59,1.49,5.27,2.12,7.9c0.63,2.63,1.31,5.23,2.24,7.75c0.89,2.53,2.04,4.97,3.33,7.33l1.01,1.75
			c0.34,0.58,0.72,1.14,1.08,1.71c0.69,1.17,1.51,2.24,2.27,3.37l-0.08,0.06c-1.76-2.07-3.45-4.21-4.88-6.55
			c-1.44-2.32-2.66-4.78-3.66-7.34c-0.98-2.56-1.69-5.22-2.26-7.88c-0.58-2.66-1.07-5.31-1.91-7.86c-0.91-2.64-1.06-5.43-1.13-8.14
			c-0.05-2.73,0.07-5.45,0.25-8.16c0.41-5.42,1.08-10.81,1.95-16.17L59.81,238.75z"/>
	</g>
	<g>
		<path d="M47.89,238.53c-0.71,3.8-1.24,7.64-1.6,11.49c-0.36,3.85-0.56,7.71-0.4,11.55c0.03,0.96,0.14,1.92,0.2,2.87
			c0.14,0.95,0.22,1.9,0.41,2.84c0.18,0.94,0.36,1.87,0.64,2.77c0.22,0.91,0.55,1.83,0.85,2.75l1.73,5.54
			c0.29,0.92,0.58,1.85,0.89,2.76c0.15,0.46,0.31,0.91,0.49,1.36c0.19,0.43,0.35,0.91,0.71,1.2l-0.05,0.09
			c-0.46-0.27-0.68-0.74-0.92-1.16c-0.24-0.43-0.44-0.87-0.65-1.32c-0.39-0.89-0.76-1.79-1.12-2.69c-0.71-1.81-1.36-3.63-2.03-5.45
			c-0.64-1.8-1.26-3.73-1.52-5.68c-0.17-0.97-0.22-1.95-0.33-2.92c-0.04-0.98-0.11-1.95-0.11-2.93c-0.06-3.9,0.24-7.78,0.7-11.63
			c0.5-3.85,1.16-7.67,2-11.45L47.89,238.53z"/>
	</g>
	<g>
		<path d="M39.26,238.26c-0.31,0.84-0.79,1.57-1.16,2.36c-0.39,0.78-0.71,1.58-1,2.39c-0.57,1.63-0.9,3.33-0.99,5.04
			c-0.07,1.71,0.04,3.42,0.23,5.12c0.03,0.86,0.23,1.7,0.29,2.57c0.12,0.86,0.28,1.71,0.36,2.6l-0.1,0.03
			c-0.73-1.6-1.27-3.31-1.55-5.06c-0.33-1.75-0.22-3.56-0.04-5.32c0.2-1.77,0.64-3.51,1.32-5.14c0.36-0.81,0.74-1.6,1.2-2.36
			c0.43-0.76,0.97-1.47,1.33-2.25L39.26,238.26z"/>
	</g>
	<g>
		<path d="M218.42,208.55c-1.16,0.81-2.21,1.76-3.14,2.8c-0.93,1.03-1.75,2.16-2.36,3.37c-1.25,2.43-1.64,5.11-1,7.73
			c0.4,2.7,1.09,5.39,2.19,7.89c1.07,2.5,2.52,4.84,4.41,6.72c0.93,0.96,2.01,1.73,3.15,2.37l0.88,0.45l0.95,0.42
			c0.64,0.28,1.28,0.55,1.92,0.81c2.58,1.03,5.23,1.88,7.93,2.54c5.4,1.31,10.98,1.83,16.56,1.71c11.2-0.01,21.93-3.82,32.33-8.05
			c1.31-0.53,2.62-1.06,3.96-1.57c0.66-0.26,1.36-0.49,2.06-0.72c0.37-0.1,0.78-0.2,1.14-0.28l1.04-0.18
			c2.79-0.49,5.6-0.97,8.43-1.29c2.85-0.18,5.71-0.27,8.57-0.11c1.43,0.07,2.86,0.24,4.26,0.5c1.4,0.32,2.79,0.74,3.98,1.53
			c-2.6-1.16-5.48-1.1-8.25-0.98c-2.79,0.16-5.57,0.56-8.33,1.06c-2.78,0.36-5.55,0.77-8.32,1.28l-1.05,0.18l-0.91,0.22
			c-0.64,0.21-1.28,0.42-1.93,0.68c-1.3,0.49-2.61,1.02-3.92,1.55c-5.24,2.12-10.57,4.17-16.08,5.68
			c-5.48,1.55-11.25,2.48-16.96,2.51c-5.72,0.12-11.48-0.4-17.07-1.76c-2.79-0.68-5.53-1.57-8.2-2.63
			c-0.67-0.27-1.33-0.54-1.98-0.83l-0.98-0.44l-1.01-0.52c-1.32-0.74-2.56-1.63-3.6-2.7c-2.13-2.11-3.7-4.67-4.85-7.35
			c-0.59-1.34-1.06-2.72-1.44-4.12c-0.38-1.4-0.74-2.82-0.9-4.27c-0.09-0.71-0.09-1.49-0.09-2.25c0.07-0.76,0.14-1.52,0.33-2.25
			c0.36-1.47,0.98-2.85,1.81-4.07C213.63,211.73,215.91,209.86,218.42,208.55z"/>
	</g>
	<g>
		<path d="M221.4,246.33c2.52,1.37,5.26,2.3,8,3.14c2.74,0.84,5.54,1.51,8.36,2.01c2.83,0.48,5.68,0.72,8.52,0.96
			c2.85,0.26,5.7,0.23,8.6,0.27l0.01,0.1c-2.85,0.53-5.76,0.7-8.66,0.63c-2.9-0.11-5.78-0.58-8.62-1.17
			c-2.83-0.61-5.63-1.38-8.36-2.32c-2.72-0.98-5.42-2.04-7.9-3.54L221.4,246.33z"/>
	</g>
	<g>
		<path d="M212.96,249.67c2.08,1.79,4.47,3.2,6.91,4.43c2.45,1.22,5,2.25,7.61,3.09c2.61,0.83,5.28,1.47,7.97,1.94
			c2.7,0.45,5.43,0.71,8.16,0.81c5.48,0.15,10.96-0.17,16.41-0.69c2.73-0.24,5.45-0.59,8.16-1c1.36-0.21,2.71-0.43,4.06-0.69
			c1.35-0.25,2.71-0.49,4.01-0.89l0.04,0.09c-2.59,1-5.29,1.6-7.99,2.18c-2.7,0.56-5.44,0.96-8.18,1.31
			c-5.49,0.66-11.03,0.76-16.55,0.5c-2.77-0.15-5.52-0.46-8.24-0.97c-2.71-0.53-5.4-1.22-8.02-2.11c-2.61-0.91-5.15-2-7.59-3.3
			c-2.43-1.3-4.79-2.77-6.84-4.62L212.96,249.67z"/>
	</g>
	<g>
		<path d="M207.62,254.43c2.09,2.16,4.56,3.91,7.09,5.5c2.55,1.58,5.24,2.93,8.01,4.04c5.55,2.26,11.48,3.51,17.45,3.72
			c1.49,0.1,2.99,0.03,4.48,0.05c1.49-0.08,2.99-0.09,4.48-0.24c2.98-0.2,5.96-0.57,8.92-0.99c5.94-0.81,11.8-2.11,17.65-3.51
			l0.02,0.1c-5.69,1.96-11.57,3.41-17.53,4.41c-2.98,0.46-5.99,0.84-9.01,0.99c-1.51,0.11-3.02,0.1-4.53,0.14
			c-1.51-0.05-3.03-0.01-4.53-0.15c-6.05-0.31-12.04-1.68-17.6-4.05c-2.78-1.18-5.46-2.6-7.98-4.25c-2.51-1.66-4.95-3.47-7-5.69
			L207.62,254.43z"/>
	</g>
	<g>
		<path d="M199.02,256.67c1.18,0.78,2.22,1.7,3.34,2.53c1.09,0.86,2.21,1.68,3.35,2.45c1.15,0.76,2.36,1.41,3.53,2.09
			c1.18,0.68,2.37,1.3,3.7,1.79l-0.01,0.1c-1.44,0.05-2.85-0.41-4.14-1c-1.3-0.6-2.44-1.47-3.54-2.33c-1.11-0.87-2.17-1.78-3.2-2.72
			c-1.03-0.94-2-1.96-3.07-2.83L199.02,256.67z"/>
	</g>
	<g>
		<path d="M154.82,291.07c6.18,3.79,12.81,6.8,19.59,9.29c6.81,2.43,13.84,4.29,21.02,5.1c3.58,0.46,7.19,0.51,10.81,0.6l10.86,0.24
			c3.62,0.1,7.24,0.14,10.86,0.18c1.81,0.02,3.62,0.03,5.43,0.01c1.81-0.01,3.63,0.01,5.43-0.14l0.02,0.1
			c-3.61,0.48-7.24,0.6-10.87,0.72c-3.63,0.11-7.26,0.12-10.89,0.12c-3.63-0.03-7.26-0.11-10.88-0.25
			c-3.61-0.16-7.27-0.27-10.88-0.8c-7.24-0.92-14.29-2.89-21.09-5.42c-6.77-2.63-13.35-5.77-19.47-9.68L154.82,291.07z"/>
	</g>
	<g>
		<path d="M77.22,327.67c3.33-1.95,7.11-3.06,10.92-3.67c3.82-0.65,7.7-0.79,11.57-0.72c3.87,0.12,7.72,0.49,11.55,1.09
			c3.82,0.64,7.59,1.49,11.34,2.41c7.49,1.89,14.84,4.27,22.1,6.88c3.63,1.32,7.23,2.69,10.79,4.26c0.89,0.38,1.78,0.82,2.66,1.26
			c0.44,0.25,0.94,0.53,1.32,0.76c0.39,0.24,0.77,0.48,1.2,0.71c1.64,0.93,3.36,1.8,5.06,2.66c6.84,3.44,13.85,6.59,21,9.29
			c3.58,1.34,7.2,2.57,10.89,3.43c0.92,0.18,1.84,0.38,2.77,0.54l2.84,0.41c1.89,0.27,3.8,0.5,5.7,0.72
			c7.63,0.85,15.29,1.45,22.96,1.79c3.84,0.17,7.68,0.33,11.52,0.28c1.92-0.03,3.84-0.06,5.75-0.22c1.92-0.1,3.82-0.35,5.7-0.78
			c-3.71,1.06-7.6,1.31-11.44,1.52c-3.85,0.2-7.71,0.2-11.56,0.17c-7.71-0.14-15.4-0.57-23.09-1.24c-3.85-0.38-7.67-0.68-11.54-1.51
			c-3.82-0.86-7.5-2.08-11.14-3.41c-7.26-2.68-14.34-5.78-21.27-9.21c-1.72-0.89-3.44-1.76-5.14-2.75l-2.45-1.46
			c-0.83-0.42-1.67-0.84-2.54-1.23c-3.47-1.56-7.05-2.96-10.64-4.3c-7.19-2.68-14.5-5-21.87-7.1c-3.7-1-7.41-1.93-11.17-2.65
			c-3.75-0.69-7.56-1.14-11.38-1.36c-3.81-0.23-7.66-0.23-11.45,0.26c-1.9,0.23-3.78,0.58-5.63,1.1
			C80.74,326.11,78.93,326.79,77.22,327.67z"/>
	</g>
	<g>
		<path d="M200.01,365.91c2.96,0.74,5.97,1.27,8.98,1.75c3.01,0.48,6.03,0.86,9.07,1.14c3.03,0.27,6.07,0.39,9.11,0.54
			c3.04,0.17,6.07,0.18,9.13,0.24l0.01,0.1c-3.03,0.52-6.1,0.65-9.17,0.66c-3.07-0.01-6.13-0.36-9.16-0.74
			c-3.04-0.38-6.06-0.86-9.07-1.44c-3-0.61-5.99-1.27-8.92-2.15L200.01,365.91z"/>
	</g>
	<g>
		<path d="M141.44,341.85c3.27,1.5,6.55,2.99,9.85,4.39c1.66,0.69,3.34,1.31,4.98,2.01c1.65,0.69,3.26,1.44,4.99,1.89l0,0.1
			c-0.92,0.06-1.85-0.08-2.73-0.29c-0.9-0.19-1.76-0.48-2.62-0.77c-1.72-0.59-3.33-1.42-4.95-2.21c-3.25-1.57-6.43-3.27-9.57-5.03
			L141.44,341.85z"/>
	</g>
	<g>
		<path d="M113.84,352.69c0.55-0.85,1.33-1.61,2.29-2.02c0.95-0.43,1.99-0.59,3.02-0.59c2.07-0.02,4.09,0.49,6.04,1.1
			c3.89,1.28,7.66,2.81,11.44,4.34c3.78,1.53,7.56,3.06,11.25,4.78c3.67,1.77,7.39,3.45,10.88,5.61L158.7,366
			c-0.91-0.44-1.86-0.82-2.79-1.21l-2.81-1.18l-5.62-2.38c-3.74-1.6-7.42-3.33-11.15-4.96c-3.73-1.61-7.47-3.24-11.29-4.6
			c-1.9-0.67-3.87-1.23-5.88-1.28c-1-0.03-2.02,0.09-2.94,0.48c-0.94,0.37-1.71,1.06-2.29,1.89L113.84,352.69z"/>
	</g>
	<g>
		<path d="M85.22,334.38c1.46-0.89,3.06-1.5,4.67-2.02c1.62-0.52,3.28-0.91,4.97-1.18c3.37-0.53,6.83-0.53,10.2-0.16
			c3.39,0.33,6.76,0.79,10.08,1.49c3.31,0.76,6.62,1.5,9.82,2.71l-0.04,0.09c-3.32-0.65-6.65-1.25-9.97-1.83
			c-3.33-0.57-6.63-1.25-9.98-1.68c-3.34-0.47-6.7-0.56-10.05-0.14c-1.67,0.2-3.33,0.52-4.95,0.97c-1.62,0.46-3.23,1-4.7,1.82
			L85.22,334.38z"/>
	</g>
	<g>
		<path d="M169.06,346.04c9.15-4.49,19.21-7.05,29.38-7.94c5.09-0.43,10.18-0.6,15.27-0.72c5.09-0.11,10.19-0.09,15.29,0.06
			c5.09,0.19,10.19,0.51,15.26,1.03c5.11,0.46,10.11,1.64,15.03,2.92c4.93,1.29,9.81,2.72,14.72,4.05c2.45,0.68,4.91,1.32,7.39,1.87
			l1.87,0.39l1.88,0.3c0.63,0.1,1.26,0.13,1.89,0.2c0.63,0.06,1.27,0,1.9,0.01c-2.54,0.23-5.1-0.18-7.6-0.64
			c-2.5-0.48-4.99-1.04-7.46-1.65c-4.94-1.23-9.85-2.58-14.79-3.78c-4.94-1.16-9.89-2.35-14.93-2.76
			c-5.05-0.49-10.13-0.78-15.2-0.94c-10.15-0.37-20.33-0.18-30.47,0.42c-5.06,0.33-10.08,1.15-15.01,2.33
			C178.56,342.4,173.69,343.93,169.06,346.04z"/>
	</g>
	<g>
		<path d="M250.95,345.21c2.49,0.64,4.84,1.66,7.25,2.49c2.39,0.87,4.8,1.75,7.25,2.25c2.47,0.4,5.05,0.5,7.57,0.86
			c1.26,0.19,2.53,0.36,3.79,0.61c1.25,0.28,2.55,0.45,3.71,1.11l-0.05,0.09c-0.59-0.2-1.22-0.27-1.85-0.33
			c-0.63-0.08-1.26-0.13-1.9-0.17l-3.81-0.3c-2.55-0.23-5.07-0.55-7.62-1.07c-2.54-0.62-4.91-1.6-7.27-2.57
			c-2.36-0.97-4.67-2.11-7.09-2.86L250.95,345.21z"/>
	</g>
	<g>
		<path d="M265.73,356.05c0.91-0.03,1.81-0.13,2.73-0.16c0.46-0.01,0.94-0.11,1.42,0.06c0.24,0.08,0.48,0.19,0.7,0.37
			c0.22,0.17,0.41,0.46,0.39,0.75l-0.09,0.04c-0.43-0.22-0.77-0.13-1.2-0.17c-0.41-0.01-0.83-0.17-1.28-0.24
			c-0.89-0.14-1.81-0.28-2.7-0.54L265.73,356.05z"/>
	</g>
	<g>
		<path d="M220.76,359.44c0.1-0.64,0.53-1.14,0.97-1.57c0.46-0.42,0.98-0.76,1.53-1.06c1.1-0.58,2.29-0.95,3.48-1.25
			c1.2-0.3,2.41-0.54,3.64-0.58c1.23-0.01,2.45,0.08,3.66,0.36l0,0.1c-0.61,0.14-1.21,0.24-1.81,0.31c-0.6,0.1-1.19,0.17-1.79,0.23
			c-1.18,0.18-2.38,0.16-3.55,0.36c-1.17,0.19-2.34,0.45-3.43,0.91c-0.55,0.22-1.07,0.5-1.55,0.84c-0.46,0.35-0.91,0.78-1.07,1.35
			L220.76,359.44z"/>
	</g>
	<g>
		<path d="M206.27,358.15c1.5-1.13,3.14-2.01,4.79-2.89c1.67-0.83,3.36-1.63,5.21-2.14c1.84-0.46,3.67-0.83,5.55-0.94
			c1.87-0.1,3.77-0.08,5.61,0.36l-0.01,0.1c-1.86,0.11-3.68,0.31-5.51,0.54c-1.82,0.24-3.67,0.38-5.46,0.72
			c-1.76,0.39-3.49,1.08-5.18,1.82c-1.69,0.75-3.39,1.52-4.94,2.52L206.27,358.15z"/>
	</g>
	<g>
		<path d="M188.53,354.18c0.95-0.44,1.76-1.16,2.66-1.73c0.89-0.59,1.85-1.11,2.85-1.5c2.01-0.78,4.21-1.06,6.31-1.23
			c2.11-0.2,4.2-0.53,6.33-0.66c2.11-0.08,4.32-0.28,6.41,0.38l-0.02,0.1c-2.12-0.08-4.19,0.25-6.29,0.51
			c-2.1,0.27-4.23,0.37-6.36,0.46c-2.13,0.07-4.2,0.24-6.2,0.9c-1,0.32-1.95,0.76-2.86,1.28c-0.92,0.51-1.77,1.18-2.78,1.57
			L188.53,354.18z"/>
	</g>
	<g>
		<path d="M177.84,350.01c0.69-0.72,1.58-1.16,2.42-1.64c0.86-0.46,1.73-0.89,2.62-1.29c1.78-0.78,3.59-1.5,5.5-2
			c0.49-0.12,0.96-0.24,1.52-0.26c0.29-0.02,0.49-0.02,0.72-0.02c0.23-0.02,0.46-0.03,0.7-0.05c0.94-0.09,1.89-0.2,2.85-0.31
			c0.96-0.09,1.92-0.19,2.9-0.23c0.97-0.03,1.97-0.09,2.94,0.16l-0.02,0.1c-1.91,0.15-3.77,0.68-5.69,0.96
			c-0.96,0.15-1.93,0.27-2.92,0.31c-0.25,0.01-0.5,0-0.75,0.01c-0.25-0.01-0.53-0.03-0.73-0.03c-0.42-0.02-0.89,0.06-1.35,0.15
			c-1.85,0.38-3.69,1-5.48,1.68c-0.9,0.33-1.8,0.7-2.67,1.09c-0.86,0.41-1.78,0.8-2.47,1.43L177.84,350.01z"/>
	</g>
	<g>
		<path d="M265.72,335.78c6.09-0.58,12.21-0.84,18.33-0.66c3.06,0.1,6.14,0.23,9.18,0.83c1.51,0.32,3.02,0.68,4.47,1.24
			c1.44,0.56,2.88,1.28,3.95,2.41l-0.07,0.07c-1.24-0.88-2.66-1.41-4.11-1.82c-1.45-0.4-2.93-0.7-4.43-0.91
			c-2.98-0.46-6-0.81-9.04-1.02c-3.04-0.19-6.09-0.26-9.14-0.26c-3.05-0.01-6.1,0.05-9.15,0.22L265.72,335.78z"/>
	</g>
	<g>
		<path d="M273.47,328.46c5.52,0.05,11.06,0.29,16.56,0.96c2.75,0.34,5.52,0.7,8.2,1.51c1.33,0.43,2.66,0.89,3.91,1.57
			c0.62,0.33,1.22,0.73,1.77,1.18c0.52,0.49,1.01,1.03,1.27,1.69l-0.09,0.04c-0.79-1.13-2.02-1.77-3.26-2.29
			c-1.25-0.51-2.55-0.91-3.88-1.23c-2.64-0.66-5.33-1.24-8.04-1.68c-2.72-0.43-5.46-0.75-8.2-1.01c-2.74-0.28-5.5-0.48-8.25-0.64
			L273.47,328.46z"/>
	</g>
	<g>
		<path d="M290.08,324.52c1.9-0.02,3.8,0.14,5.69,0.32c1.89,0.2,3.77,0.46,5.65,0.79c1.88,0.32,3.77,0.65,5.58,1.31
			c0.9,0.33,1.8,0.69,2.64,1.18c0.85,0.45,1.65,1.05,2.29,1.77l-0.07,0.07c-1.61-1-3.39-1.53-5.18-2.07
			c-1.79-0.52-3.59-1.05-5.43-1.48c-1.84-0.42-3.69-0.78-5.56-1.08c-1.86-0.31-3.74-0.6-5.62-0.71V324.52z"/>
	</g>
	<g>
		<path d="M238.82,320.72c6.41-1.92,13.03-3.15,19.7-3.79c6.67-0.66,13.41-0.59,20.09-0.28c6.69,0.27,13.39,0.59,20.04,1.54
			c3.32,0.5,6.64,1.06,9.89,1.97c3.21,0.92,6.51,2.09,9.02,4.38l-0.07,0.07c-1.31-1.04-2.8-1.78-4.36-2.36
			c-0.77-0.31-1.57-0.53-2.36-0.79l-2.41-0.63c-3.24-0.75-6.54-1.26-9.84-1.65c-6.62-0.81-13.28-1.35-19.95-1.73
			c-6.68-0.41-13.35-0.58-20.01-0.02c-6.66,0.51-13.28,1.59-19.72,3.39L238.82,320.72z"/>
	</g>
	<g>
		<path d="M270.09,301.71c3.06-0.12,6.1-0.56,9.1-1.13c3-0.59,5.97-1.39,8.73-2.65c2.84-1.23,5.81-2.07,8.77-2.88
			c2.97-0.79,5.97-1.48,8.98-2.07c3.02-0.58,6.04-1.13,9.18-1.28c3.1-0.01,6.14,0.08,9.22,0.22c3.07,0.18,6.14,0.38,9.19,0.78
			c1.53,0.21,3.05,0.46,4.55,0.81c0.75,0.19,1.49,0.41,2.22,0.69c0.7,0.29,1.47,0.64,1.89,1.33l-0.09,0.05
			c-0.44-0.61-1.19-0.89-1.9-1.12c-0.72-0.22-1.47-0.38-2.22-0.51c-1.5-0.26-3.01-0.44-4.54-0.56c-3.04-0.25-6.1-0.4-9.15-0.48
			c-3.05-0.1-6.14-0.18-9.16-0.23c-3,0.07-6.04,0.56-9.05,1.07c-3.01,0.54-6,1.18-8.97,1.92c-2.96,0.75-5.93,1.55-8.73,2.71
			c-2.84,1.23-5.86,1.96-8.88,2.49c-3.03,0.51-6.08,0.88-9.16,0.93V301.71z"/>
	</g>
	<g>
		<path d="M249.25,289.04c4.33,0.11,8.69,0.27,12.94-0.53c1.06-0.19,2.11-0.44,3.14-0.75c1.03-0.31,2.03-0.7,3.05-1.08
			c2.04-0.74,4.1-1.42,6.16-2.1c8.24-2.68,16.6-5.08,24.92-7.43c4.12-1.32,8.28-2.68,12.62-3.35c2.17-0.33,4.37-0.48,6.56-0.43
			c2.19,0.06,4.36,0.27,6.52,0.53c4.31,0.59,8.6,1.34,12.83,2.32c2.12,0.49,4.22,1.05,6.3,1.68c1.04,0.33,2.06,0.69,3.08,1.1
			c0.49,0.23,1.01,0.4,1.48,0.69c0.24,0.13,0.48,0.26,0.71,0.4l0.65,0.51l-0.07,0.07l-0.65-0.46c-0.23-0.13-0.48-0.24-0.72-0.36
			c-0.47-0.25-1-0.39-1.5-0.6c-1.02-0.35-2.06-0.65-3.1-0.92c-2.09-0.55-4.2-1.03-6.32-1.44c-4.24-0.84-8.51-1.53-12.8-2.01
			c-2.14-0.26-4.29-0.47-6.43-0.53c-2.13-0.05-4.27,0.1-6.39,0.41c-4.25,0.59-8.38,1.87-12.53,3.13c-8.39,2.27-16.73,4.55-25,7.14
			c-2.07,0.64-4.13,1.29-6.18,2c-1.02,0.36-2.04,0.74-3.09,1.04c-1.05,0.3-2.11,0.54-3.19,0.71c-4.31,0.74-8.68,0.51-12.99,0.33
			V289.04z"/>
	</g>
	<g>
		<path d="M268.1,251.83c4.45-0.19,8.88-0.85,13.27-1.59c2.19-0.38,4.38-0.84,6.52-1.39c2.13-0.58,4.31-1.16,6.12-2.28
			c7.68-4.6,15.43-9.02,23.23-13.41c3.9-2.19,7.79-4.38,11.78-6.46c1.01-0.52,1.99-1.01,3.09-1.49c0.57-0.25,1.1-0.43,1.62-0.61
			l1.58-0.55c2.11-0.72,4.24-1.43,6.38-2.11c2.15-0.64,4.32-1.26,6.53-1.76c1.1-0.25,2.23-0.46,3.38-0.62
			c1.19-0.14,2.26-0.16,3.39-0.22c2.24-0.1,4.48-0.17,6.73-0.15c1.12,0.03,2.25,0.08,3.37,0.2c1.12,0.12,2.26,0.26,3.31,0.76
			l-0.08,0.18c-1.04-0.33-2.16-0.34-3.26-0.36c-1.11,0-2.21,0.06-3.32,0.14c-2.22,0.14-4.43,0.37-6.64,0.62
			c-1.09,0.14-2.25,0.24-3.28,0.4c-1.06,0.19-2.12,0.43-3.19,0.72c-2.12,0.57-4.23,1.27-6.33,1.99c-2.11,0.69-4.21,1.43-6.32,2.17
			l-1.59,0.54c-0.54,0.17-1.07,0.35-1.52,0.54c-0.96,0.39-1.98,0.88-2.97,1.37c-3.99,1.94-7.95,4.01-11.89,6.09
			c-7.87,4.2-15.73,8.46-23.48,12.86c-2.04,1.17-4.27,1.68-6.45,2.21c-2.19,0.49-4.4,0.88-6.62,1.2c-4.43,0.62-8.88,1.14-13.36,1.2
			V251.83z"/>
	</g>
	<g>
		<path d="M366.33,225.18c-0.27-1.08-0.66-2.13-1.23-3.02c-0.28-0.45-0.68-0.79-0.97-1.19l-1.01-1.28l0.04-0.09
			c0.63,0,1.21,0.29,1.68,0.68c0.49,0.39,0.74,0.98,0.97,1.52c0.46,1.09,0.63,2.25,0.62,3.38L366.33,225.18z"/>
	</g>
	<g>
		<path d="M363.09,228.71c-0.46-1.7-1.11-3.35-1.99-4.83c-0.44-0.74-1.01-1.37-1.5-2.04c-0.5-0.67-1.06-1.29-1.69-1.96l0.05-0.09
			c0.92,0.19,1.73,0.73,2.39,1.38c0.67,0.66,1.08,1.51,1.46,2.33c0.77,1.65,1.2,3.41,1.38,5.18L363.09,228.71z"/>
	</g>
	<g>
		<path d="M356.9,228.7c-0.29-1.63-0.73-3.23-1.44-4.67c-0.36-0.72-0.87-1.32-1.31-1.95c-0.45-0.63-0.97-1.19-1.59-1.79l0.04-0.09
			c0.88,0.11,1.68,0.6,2.31,1.23c0.64,0.64,0.98,1.48,1.28,2.28c0.59,1.62,0.8,3.31,0.8,4.98L356.9,228.7z"/>
	</g>
	<g>
		<path d="M345.64,230.52c0.02-0.78-0.18-1.55-0.46-2.26c-0.27-0.72-0.64-1.39-1.1-1.99c-0.46-0.61-1.05-1.06-1.58-1.54
			c-0.55-0.49-1.15-0.9-1.85-1.35l0.02-0.1c0.84-0.09,1.7,0.18,2.42,0.64c0.74,0.46,1.23,1.19,1.65,1.9
			c0.82,1.43,1.27,3.11,0.99,4.71L345.64,230.52z"/>
	</g>
	<g>
		<path d="M289.22,240.73c1.32-0.52,2.7-0.9,4.08-1.22c1.39-0.31,2.8-0.53,4.22-0.65c1.42-0.12,2.87-0.17,4.29,0.07
			c1.41,0.25,2.82,0.66,4.03,1.44l-0.02,0.04c-1.33-0.51-2.69-0.84-4.08-0.99c-1.38-0.17-2.79-0.23-4.2-0.17
			c-1.41,0.07-2.81,0.24-4.2,0.5c-1.39,0.26-2.77,0.57-4.11,1.03L289.22,240.73z"/>
	</g>
	<g>
		<path d="M279.65,245.15c1.42-0.75,2.97-1.17,4.53-1.53c1.56-0.33,3.16-0.53,4.76-0.61c1.6-0.08,3.21-0.02,4.8,0.24
			c1.59,0.26,3.13,0.74,4.6,1.36l-0.02,0.05c-1.56-0.36-3.08-0.75-4.66-0.92c-1.56-0.19-3.13-0.36-4.72-0.34
			c-1.58,0.02-3.16,0.17-4.72,0.45c-1.55,0.29-3.12,0.64-4.55,1.33L279.65,245.15z"/>
	</g>
	<g>
		<path d="M319.2,232.91c1.41,0.27,2.78,0.69,4.08,1.33c0.64,0.32,1.28,0.69,1.81,1.22c0.26,0.27,0.5,0.59,0.63,0.98
			c0.1,0.44,0.07,0.75,0.14,1.07c0.13,0.64,0.55,1.18,1.14,1.28c0.6,0.1,1.26-0.1,1.87-0.4c1.21-0.63,2.35-1.48,2.96-2.66
			c0.31-0.58,0.49-1.22,0.56-1.88c0.07-0.68,0-1.3,0.01-2.12l0.01-0.17c0.01-0.03,0-0.05,0.03-0.13c0.01-0.02-0.01-0.02,0.07-0.14
			c-0.24-0.16,0.98-0.25,0.78-0.02c0.1,0.16,0.05,0.11,0.08,0.16l0.01,0.05c0.03,0.15,0.03,0.22,0.05,0.32l0.07,0.53
			c0.05,0.35,0.1,0.69,0.16,1.03c0.12,0.68,0.27,1.36,0.48,2c0.41,1.27,1.05,2.55,2.07,3.16c0.48,0.31,0.94,0.29,1.4,0.01
			c0.46-0.29,0.86-0.8,1.17-1.36c0.62-1.12,0.93-2.48,0.89-3.74c-0.04-0.65-0.18-1.17-0.48-1.71l-0.06-0.11l-0.03-0.06l-0.02-0.03
			c0.01,0.01,0.05,0.08,0.11,0.13c0.1,0.12,0.4,0.21,0.6,0.14c0.21-0.07,0.25-0.16,0.38-0.23c0.12-0.09,0.23-0.29,0.23-0.46
			c0-0.18-0.07-0.28-0.04-0.22l0.23,0.46l0.48,0.94c1.3,2.52,2.63,5.04,3.99,7.51c0.17,0.31,0.34,0.61,0.5,0.83
			c0.18,0.24,0.38,0.48,0.6,0.7c0.44,0.44,0.95,0.83,1.46,1.09c0.52,0.27,1.05,0.36,1.35,0.25c0.29-0.08,0.57-0.37,0.77-0.9
			c0.43-1.1,0.57-2.47,0.55-3.78c-0.01-1.32-0.18-2.71-0.49-3.96l1.97-0.42c0.33,1.9,0.76,4.02,1.68,5.51
			c0.54,0.74,0.79,0.93,1.63,0.67c0.77-0.26,1.56-0.9,2.32-1.54c0.78-0.66,1.46-1.4,2.43-2.08c1.14-0.74,2.5-0.55,3.51-0.06
			c1.03,0.5,1.82,1.26,2.54,2.04c0.71,0.79,1.31,1.66,1.87,2.54l-0.16,0.12c-1.34-1.54-2.81-3.15-4.61-3.83
			c-0.86-0.34-1.85-0.31-2.45,0.17c-0.69,0.57-1.38,1.41-2.13,2.16c-0.75,0.76-1.57,1.53-2.74,2.03c-0.59,0.24-1.3,0.41-2.11,0.13
			c-0.76-0.29-1.26-0.82-1.6-1.31c-0.71-1.01-1.07-2.05-1.42-3.08c-0.34-1.05-0.58-2.07-0.76-3.17l1.97-0.42
			c0.39,1.51,0.59,2.95,0.62,4.48c0.01,1.52-0.15,3.04-0.78,4.59c-0.16,0.4-0.41,0.82-0.74,1.19c-0.35,0.37-0.83,0.7-1.37,0.82
			c-1.09,0.26-2.02-0.08-2.75-0.47c-0.74-0.41-1.35-0.92-1.9-1.51c-0.27-0.29-0.52-0.61-0.75-0.95c-0.24-0.37-0.41-0.7-0.57-1.02
			c-1.3-2.56-2.54-5.11-3.79-7.67l-0.46-0.97l-0.23-0.5c0.01,0.02-0.07-0.12-0.09-0.34c-0.02-0.21,0.07-0.46,0.18-0.58
			c0.1-0.14,0.18-0.16,0.41-0.2c0.22-0.03,0.54,0.1,0.67,0.25c0.07,0.07,0.12,0.15,0.14,0.19l0.02,0.03l0.03,0.06l0.07,0.12
			c0.39,0.71,0.61,1.59,0.61,2.36c0.01,1.58-0.39,3.08-1.17,4.43c-0.41,0.66-0.89,1.32-1.66,1.78c-0.21,0.09-0.42,0.19-0.63,0.27
			c-0.23,0.04-0.47,0.08-0.71,0.09c-0.23-0.03-0.47-0.07-0.7-0.12l-0.6-0.3c-1.43-0.94-2.05-2.45-2.47-3.84
			c-0.21-0.71-0.35-1.43-0.46-2.15c-0.05-0.36-0.09-0.72-0.13-1.08l-0.05-0.53l-0.02-0.21c0,0,0,0,0.01,0.02
			c0.02,0.03-0.03-0.03,0.07,0.13c-0.2,0.22,1,0.14,0.76-0.01c0.07-0.11,0.05-0.1,0.05-0.11c0.01-0.04,0-0.01,0,0l-0.01,0.1
			c-0.03,0.61,0.02,1.41-0.08,2.14c-0.1,0.75-0.34,1.5-0.73,2.16c-0.77,1.35-2.06,2.23-3.38,2.85c-0.67,0.3-1.44,0.54-2.26,0.38
			c-0.4-0.09-0.78-0.33-1.04-0.65c-0.25-0.32-0.4-0.7-0.47-1.08c-0.07-0.37-0.05-0.79-0.1-1.05c-0.08-0.29-0.27-0.57-0.49-0.81
			c-0.46-0.49-1.06-0.87-1.67-1.21c-1.24-0.66-2.59-1.13-3.96-1.44L319.2,232.91z"/>
	</g>
	<g>
		<path d="M302.74,250.33c2-0.9,3.92-2.05,5.85-3.13c1.93-1.08,3.85-2.2,5.75-3.33c1.9-1.14,3.75-2.35,5.66-3.46
			c0.97-0.54,1.9-1.12,2.85-1.68c0.46-0.29,0.94-0.57,1.39-0.88l0.68-0.47c0.21-0.17,0.39-0.36,0.6-0.55l0.09,0.05
			c-0.57,1.02-1.51,1.68-2.36,2.42c-0.88,0.69-1.8,1.32-2.72,1.95c-1.86,1.23-3.83,2.26-5.79,3.31c-1.96,1.05-3.92,2.08-5.91,3.08
			c-2,0.96-3.96,1.99-6.06,2.78L302.74,250.33z"/>
	</g>
	<g>
		<path d="M293.87,258.78c2.98-0.92,5.87-2.2,8.74-3.45c2.87-1.27,5.69-2.62,8.45-4.11c2.75-1.49,5.41-3.13,7.97-4.88
			c1.29-0.86,2.52-1.81,3.66-2.85c1.13-1.04,2.17-2.21,2.82-3.63l0.1,0.03c-0.39,1.56-1.36,2.91-2.42,4.09
			c-1.08,1.19-2.31,2.2-3.57,3.17c-2.55,1.9-5.37,3.38-8.19,4.78c-2.82,1.41-5.71,2.67-8.62,3.86c-2.93,1.14-5.86,2.29-8.92,3.09
			L293.87,258.78z"/>
	</g>
	<g>
		<path d="M319.14,251.89c1.12-0.95,2.34-1.75,3.47-2.66c1.15-0.88,2.25-1.82,3.25-2.84c0.98-1.04,1.81-2.19,2.43-3.39
			c0.63-1.2,0.84-2.56,0.46-4l0.09-0.04c0.92,1.21,0.98,3.02,0.36,4.45c-0.59,1.46-1.69,2.56-2.78,3.55
			c-1.11,0.99-2.29,1.86-3.51,2.67c-1.22,0.81-2.52,1.5-3.7,2.32L319.14,251.89z"/>
	</g>
	<g>
		<path d="M328.33,249.32c0.65-1.09,1.42-2.09,2.07-3.15c0.68-1.05,1.29-2.13,1.79-3.26c0.5-1.13,0.81-2.31,1.08-3.47
			c0.28-1.17,0.4-2.36,0.4-3.64l0.1-0.02c0.54,1.18,0.65,2.54,0.48,3.84c-0.17,1.31-0.73,2.52-1.34,3.64
			c-0.61,1.13-1.33,2.19-2.1,3.2c-0.77,1.01-1.65,1.92-2.4,2.92L328.33,249.32z"/>
	</g>
	<g>
		<path d="M335.5,248.25c0.56-1.53,1.11-3.05,1.51-4.6c0.2-0.77,0.27-1.57,0.47-2.32c0.19-0.76,0.35-1.51,0.5-2.34l0.1-0.02
			c0.4,0.78,0.45,1.67,0.38,2.51c-0.06,0.85-0.4,1.63-0.69,2.4c-0.59,1.55-1.37,2.99-2.18,4.4L335.5,248.25z"/>
	</g>
	<g>
		<path d="M340.61,247.4c0.64-1.63,1.24-3.27,1.59-4.95c0.18-0.84,0.19-1.69,0.32-2.51c0.11-0.83,0.17-1.65,0.22-2.56l0.1-0.03
			c0.49,0.79,0.66,1.73,0.68,2.64c0.02,0.92-0.27,1.81-0.54,2.65c-0.28,0.85-0.62,1.67-1,2.47c-0.39,0.79-0.83,1.56-1.27,2.31
			L340.61,247.4z"/>
	</g>
	<g>
		<path d="M344.8,249.69c0.52-1.14,0.84-2.29,0.91-3.49c0.04-0.6-0.05-1.19,0.02-1.79c0.07-0.6,0.13-1.2,0.36-1.84l0.1-0.01
			c0.33,0.59,0.48,1.22,0.55,1.85c0.08,0.64-0.09,1.28-0.23,1.9c-0.14,0.63-0.34,1.24-0.61,1.82c-0.28,0.58-0.65,1.1-1.01,1.6
			L344.8,249.69z"/>
	</g>
	<g>
		<path d="M348.89,251.89c0.43-0.58,0.69-1.23,0.74-1.92c0.08-0.68,0.04-1.38-0.05-2.08c-0.08-0.7-0.32-1.37-0.35-2.08
			c-0.06-0.71-0.1-1.42,0.01-2.18l0.1-0.02c0.43,0.64,0.69,1.33,0.88,2.04c0.19,0.71,0.17,1.46,0.17,2.2
			c-0.01,0.74-0.06,1.49-0.26,2.22c-0.19,0.73-0.62,1.4-1.15,1.89L348.89,251.89z"/>
	</g>
	<g>
		<path d="M353.52,251.07c0.19-0.89,0.51-1.72,0.71-2.57c0.22-0.85,0.35-1.7,0.37-2.56c0.02-0.86-0.17-1.69-0.24-2.54
			c-0.06-0.86-0.23-1.7-0.27-2.63l0.09-0.04c0.56,0.74,0.96,1.59,1.16,2.49c0.23,0.9,0.16,1.86,0.05,2.77
			c-0.12,0.92-0.36,1.81-0.69,2.65c-0.33,0.84-0.78,1.62-1.09,2.44L353.52,251.07z"/>
	</g>
	<g>
		<path d="M356.9,251.07c0.39-2.01,0.65-4.01,0.67-6.02c0.02-1.01-0.11-2-0.09-3c0.03-1,0.01-2.01,0.14-3.05l0.1-0.02
			c0.41,0.97,0.65,1.99,0.76,3.02c0.13,1.03,0,2.07-0.11,3.1c-0.11,1.03-0.28,2.05-0.51,3.05c-0.24,1-0.56,1.98-0.87,2.95
			L356.9,251.07z"/>
	</g>
	<g>
		<path d="M360.5,251.06c0.58-1.12,1.01-2.3,1.39-3.5c0.38-1.19,0.69-2.41,0.91-3.63c0.21-1.23,0.28-2.46,0.38-3.67
			c0.1-1.22,0.09-2.43-0.08-3.7l0.09-0.04c0.7,1.11,0.95,2.46,0.99,3.76c0.03,1.31-0.27,2.58-0.6,3.82c-0.66,2.47-1.61,4.87-2.99,7
			L360.5,251.06z"/>
	</g>
	<path d="M206.94,342.77c0.7,0.42,1.13,1.41,0.7,1.69c-0.42,0.28-1.69,0.42-1.83,0S206.94,342.77,206.94,342.77z"/>
	<path d="M217.94,348.77c0.7,0.42,1.13,1.41,0.7,1.69c-0.42,0.28-1.69,0.42-1.83,0C216.67,350.03,217.94,348.77,217.94,348.77z"/>
	<path d="M232.94,349.77c0.7,0.42,1.13,1.41,0.7,1.69c-0.42,0.28-1.69,0.42-1.83,0C231.67,351.03,232.94,349.77,232.94,349.77z"/>
	<path d="M239.94,349.77c0.7,0.42,1.13,1.41,0.7,1.69c-0.42,0.28-1.69,0.42-1.83,0C238.67,351.03,239.94,349.77,239.94,349.77z"/>
	<path d="M259.94,357.77c0.7,0.42,1.13,1.41,0.7,1.69s-1.69,0.42-1.83,0S259.94,357.77,259.94,357.77z"/>
	<path d="M197.94,363.77c0.7,0.42,1.13,1.41,0.7,1.69c-0.42,0.28-1.69,0.42-1.83,0C196.67,365.04,197.94,363.77,197.94,363.77z"/>
	<path d="M186.94,361.77c0.7,0.42,1.13,1.41,0.7,1.69c-0.42,0.28-1.69,0.42-1.83,0C185.67,363.04,186.94,361.77,186.94,361.77z"/>
	<path d="M178.94,360.77c0.7,0.42,1.13,1.41,0.7,1.69c-0.42,0.28-1.69,0.42-1.83,0C177.67,362.04,178.94,360.77,178.94,360.77z"/>
	<path d="M221.94,322.77c0.7,0.42,1.13,1.41,0.7,1.69c-0.42,0.28-1.69,0.42-1.83,0S221.94,322.77,221.94,322.77z"/>
	<path d="M227.94,320.77c0.7,0.42,1.13,1.41,0.7,1.69c-0.42,0.28-1.69,0.42-1.83,0S227.94,320.77,227.94,320.77z"/>
	<path d="M285.42,323.21c0.7,0.42,1.13,1.41,0.7,1.69c-0.42,0.28-1.69,0.42-1.83,0C284.15,324.48,285.42,323.21,285.42,323.21z"/>
	<path d="M265.42,301.21c0.7,0.42,1.13,1.41,0.7,1.69s-1.69,0.42-1.83,0S265.42,301.21,265.42,301.21z"/>
	<path d="M242.42,288.21c0.7,0.42,1.13,1.41,0.7,1.69c-0.42,0.28-1.69,0.42-1.83,0S242.42,288.21,242.42,288.21z"/>
	<path d="M235.41,287.21c0.7,0.42,1.13,1.41,0.7,1.69c-0.42,0.28-1.69,0.42-1.83,0S235.41,287.21,235.41,287.21z"/>
	<path d="M204.41,288.21c0.7,0.42,1.13,1.41,0.7,1.69c-0.42,0.28-1.69,0.42-1.83,0S204.41,288.21,204.41,288.21z"/>
	<path d="M333.51,250.6c0.7,0.42,1.13,1.41,0.7,1.69s-1.69,0.42-1.83,0C332.24,251.87,333.51,250.6,333.51,250.6z"/>
	<path d="M326.51,251.6c0.7,0.42,1.13,1.41,0.7,1.69c-0.42,0.28-1.69,0.42-1.83,0S326.51,251.6,326.51,251.6z"/>
	<path d="M322.51,254.6c0.7,0.42,1.13,1.41,0.7,1.69c-0.42,0.28-1.69,0.42-1.83,0C321.24,255.87,322.51,254.6,322.51,254.6z"/>
	<path d="M348.51,253.6c0.7,0.42,1.13,1.41,0.7,1.69c-0.42,0.28-1.69,0.42-1.83,0C347.24,254.87,348.51,253.6,348.51,253.6z"/>
	<path d="M355.51,253.6c0.7,0.42,1.13,1.41,0.7,1.69c-0.42,0.28-1.69,0.42-1.83,0C354.24,254.87,355.51,253.6,355.51,253.6z"/>
	<path d="M354.51,257.6c0.7,0.42,1.13,1.41,0.7,1.69c-0.42,0.28-1.69,0.42-1.83,0C353.24,258.87,354.51,257.6,354.51,257.6z"/>
	<path d="M349.51,224.6c0.7,0.42,1.13,1.41,0.7,1.69c-0.42,0.28-1.69,0.42-1.83,0C348.24,225.87,349.51,224.6,349.51,224.6z"/>
	<path d="M350.51,227.6c0.7,0.42,1.13,1.41,0.7,1.69s-1.69,0.42-1.83,0C349.24,228.87,350.51,227.6,350.51,227.6z"/>
	<path d="M362.51,231.6c0.7,0.42,1.13,1.41,0.7,1.69c-0.42,0.28-1.69,0.42-1.83,0C361.25,232.87,362.51,231.6,362.51,231.6z"/>
	<path d="M298.51,251.6c0.7,0.42,1.13,1.41,0.7,1.69s-1.69,0.42-1.83,0S298.51,251.6,298.51,251.6z"/>
	<path d="M289.51,258.6c0.7,0.42,1.13,1.41,0.7,1.69c-0.42,0.28-1.69,0.42-1.83,0S289.51,258.6,289.51,258.6z"/>
	<path d="M276.51,244.6c0.7,0.42,1.13,1.41,0.7,1.69c-0.42,0.28-1.69,0.42-1.83,0C275.24,245.87,276.51,244.6,276.51,244.6z"/>
	<path d="M282.51,259.6c0.7,0.42,1.13,1.41,0.7,1.69s-1.69,0.42-1.83,0S282.51,259.6,282.51,259.6z"/>
	<path d="M262.7,250.1c0.7,0.42,1.13,1.41,0.7,1.69c-0.42,0.28-1.69,0.42-1.83,0S262.7,250.1,262.7,250.1z"/>
	<path d="M216.7,242.1c0.7,0.42,1.13,1.41,0.7,1.69c-0.42,0.28-1.69,0.42-1.83,0C215.43,243.37,216.7,242.1,216.7,242.1z"/>
	<path d="M209.87,233.15c0.7,0.42,1.13,1.41,0.7,1.69c-0.42,0.28-1.69,0.42-1.83,0C208.6,234.41,209.87,233.15,209.87,233.15z"/>
	<path d="M196.87,238.15c0.7,0.42,1.13,1.41,0.7,1.69c-0.42,0.28-1.69,0.42-1.83,0C195.6,239.41,196.87,238.15,196.87,238.15z"/>
	<path d="M192.87,243.15c0.7,0.42,1.13,1.41,0.7,1.69c-0.42,0.28-1.69,0.42-1.83,0C191.6,244.42,192.87,243.15,192.87,243.15z"/>
	<path d="M198.87,247.15c0.7,0.42,1.13,1.41,0.7,1.69c-0.42,0.28-1.69,0.42-1.83,0C197.6,248.42,198.87,247.15,198.87,247.15z"/>
	<path d="M194.87,252.15c0.7,0.42,1.13,1.41,0.7,1.69c-0.42,0.28-1.69,0.42-1.83,0C193.6,253.42,194.87,252.15,194.87,252.15z"/>
	<path d="M182.87,256.15c0.7,0.42,1.13,1.41,0.7,1.69c-0.42,0.28-1.69,0.42-1.83,0C181.6,257.42,182.87,256.15,182.87,256.15z"/>
	<path d="M188.87,269.15c0.7,0.42,1.13,1.41,0.7,1.69c-0.42,0.28-1.69,0.42-1.83,0C187.6,270.42,188.87,269.15,188.87,269.15z"/>
	<path d="M197.72,289.84c0.7,0.42,1.13,1.41,0.7,1.69c-0.42,0.28-1.69,0.42-1.83,0S197.72,289.84,197.72,289.84z"/>
	<path d="M173.71,277.84c0.7,0.42,1.13,1.41,0.7,1.69c-0.42,0.28-1.69,0.42-1.83,0C172.45,279.11,173.71,277.84,173.71,277.84z"/>
</g>
</svg>
